<svg width="52" height="29" viewBox="0 0 52 29" fill="none" xmlns="http://www.w3.org/2000/svg">
<path d="M22.0395 24.6V29H1.39951V25.52L12.5195 14.96C13.7728 13.76 14.6128 12.72 15.0395 11.84C15.4928 10.9333 15.7195 10.04 15.7195 9.16C15.7195 7.85333 15.2795 6.85333 14.3995 6.16C13.5195 5.46667 12.2262 5.12 10.5195 5.12C7.66618 5.12 5.47951 6.09333 3.95951 8.04L0.319512 5.24C1.41285 3.77333 2.87951 2.64 4.71951 1.84C6.58618 1.01333 8.66618 0.599998 10.9595 0.599998C13.9995 0.599998 16.4262 1.32 18.2395 2.76C20.0528 4.2 20.9595 6.16 20.9595 8.64C20.9595 10.16 20.6395 11.5867 19.9995 12.92C19.3595 14.2533 18.1328 15.7733 16.3195 17.48L8.83951 24.6H22.0395ZM51.4148 22.64H46.4548V29H41.4148V22.64H26.0548V19.04L39.8548 0.999998H45.4148L32.4148 18.24H41.5748V12.6H46.4548V18.24H51.4148V22.64Z" fill="white"/>
</svg>
