<svg width="37" height="39" viewBox="0 0 37 39" fill="none" xmlns="http://www.w3.org/2000/svg">
<path d="M17.5781 22.5089L15.2279 24.1761C14.6878 24.5592 13.9394 24.432 13.5562 23.8919C13.1731 23.3518 13.3001 22.6031 13.8402 22.2199L16.1907 20.5525C16.1808 19.8783 16.4906 19.2097 17.0833 18.7892C17.0931 18.7823 17.1029 18.779 17.1128 18.7729L17.1161 14.2393C17.1166 13.5767 17.6538 13.0401 18.3161 13.0409C18.9786 13.0419 19.5146 13.5791 19.5142 14.2411L19.5108 18.779C19.7098 18.9161 19.8925 19.0831 20.0404 19.2917C20.7185 20.2475 20.4932 21.5707 19.5377 22.2485C18.9449 22.6695 18.2115 22.7409 17.5781 22.5089Z" fill="white"/>
<path d="M31.1374 33.4125C34.3487 30.1448 36.3344 25.6678 36.3344 20.7239C36.3344 10.7203 28.225 2.61157 18.2214 2.61157C8.21782 2.61157 0.108398 10.7198 0.108398 20.7239C0.108398 25.6684 2.09473 30.1448 5.30601 33.4132L3.66743 35.0511C2.76391 35.9547 2.76391 37.4183 3.66684 38.3219C4.118 38.7737 4.71076 38.9999 5.30222 38.9999C5.89367 38.9999 6.4859 38.7737 6.93701 38.3226L8.9791 36.2811C11.6866 37.894 14.8403 38.837 18.2214 38.837C21.6025 38.837 24.7562 37.894 27.465 36.2805L29.507 38.3226C29.9588 38.7738 30.5503 39 31.1418 39C31.7333 39 32.3261 38.7738 32.7772 38.322C33.6802 37.4184 33.6802 35.9547 32.7766 35.0512L31.1374 33.4125ZM18.2208 31.3785C17.5773 31.3785 17.0559 31.9011 17.0559 32.5446V34.1148C10.5688 33.554 5.39059 28.3759 4.83039 21.8893H6.40066C7.0442 21.8893 7.56676 21.3668 7.56676 20.7239C7.56676 20.0804 7.04415 19.5585 6.40066 19.5585H4.83039C5.39059 13.072 10.5688 7.89311 17.0559 7.33356V8.90442C17.0559 9.54797 17.5773 10.0693 18.2208 10.0693C18.8643 10.0693 19.3862 9.54797 19.3862 8.90442V7.33356C25.8734 7.89311 31.0509 13.0719 31.6117 19.5585H30.0409C29.3973 19.5585 28.8754 20.0804 28.8754 20.7239C28.8754 21.3668 29.3973 21.8893 30.0409 21.8893H31.6117C31.0515 28.3759 25.874 33.554 19.3869 34.1148V32.5453C19.3869 31.9011 18.8649 31.3785 18.2208 31.3785Z" fill="white"/>
<path d="M13.5749 1.64669C12.1776 0.616612 10.4545 0 8.58532 0C3.93033 0 0.156372 3.77402 0.156372 8.42895C0.156372 9.57314 0.386336 10.6634 0.799917 11.6578C3.38771 6.70519 8.02139 3.00019 13.5749 1.64669Z" fill="white"/>
<path d="M35.6422 11.6579C36.0557 10.6628 36.2857 9.57255 36.2857 8.429C36.2863 3.77402 32.5124 0 27.8574 0C25.987 0 24.2651 0.616612 22.8679 1.64799C28.4207 3.00078 33.0544 6.70649 35.6422 11.6579Z" fill="white"/>
</svg>
