<svg width="42" height="32" viewBox="0 0 42 32" fill="none" xmlns="http://www.w3.org/2000/svg">
<path d="M20.9129 0C9.36316 0 -0.000244141 9.45236 -0.000244141 21.1126C-0.000244141 27.435 2.72823 31.5584 2.72823 31.5584L39.0889 31.5602C39.0889 31.5602 41.8252 27.0538 41.8252 21.1121C41.8252 9.45236 32.4618 0 20.9129 0ZM37.555 28.9882L4.337 28.9737C4.337 28.9737 2.56696 25.6216 2.56696 21.046C2.56696 10.8262 10.812 2.54091 20.983 2.54091C31.1537 2.54091 39.3991 10.8258 39.3991 21.046C39.3996 25.6733 37.555 28.9882 37.555 28.9882Z" fill="white"/>
<path d="M26.8232 5.60599L26.5607 5.60555L20.9824 16.5365L15.2033 5.51221L7.29091 25.4279H5.24609V27.0275H16.4483V25.4279H14.2256L16.4483 19.2037L20.9824 27.0275L25.3389 19.2037L27.5612 25.4279H25.3389V27.0275H36.4517V25.4279H34.5266L26.8232 5.60599Z" fill="white"/>
</svg>
