<svg width="33" height="32" viewBox="0 0 33 32" fill="none" xmlns="http://www.w3.org/2000/svg">
<path d="M6.02249 12.1289H0.931713C0.417051 12.1289 -0.000244141 12.5462 -0.000244141 13.0609V18.0314C-0.000244141 18.5461 0.417051 18.9633 0.931713 18.9633H12.8569L6.02249 12.1289Z" fill="white"/>
<path d="M29.6366 4.36237C29.6366 4.06794 29.7163 3.9683 29.9295 3.70188C30.2088 3.35274 30.6307 2.82526 30.6307 1.87703C30.6307 1.3623 30.2134 0.945068 29.6988 0.945068C29.1841 0.945068 28.7668 1.36236 28.7668 1.87703C28.7668 2.17146 28.6871 2.2711 28.474 2.53752C28.1947 2.8866 27.7727 3.41413 27.7727 4.36237C27.7727 5.31061 28.1947 5.83815 28.474 6.18723C28.6871 6.45364 28.7668 6.55328 28.7668 6.84772C28.7668 7.14203 28.6871 7.24167 28.474 7.50802C28.1947 7.8571 27.7727 8.38457 27.7727 9.33275C27.7727 9.84747 28.19 10.2647 28.7047 10.2647C29.2193 10.2647 29.6366 9.84741 29.6366 9.33275C29.6366 9.03844 29.7163 8.9388 29.9295 8.67245C30.2087 8.32336 30.6307 7.79589 30.6307 6.84772C30.6307 5.89948 30.2087 5.37188 29.9295 5.02286C29.7163 4.75645 29.6366 4.65681 29.6366 4.36237Z" fill="white"/>
<path d="M25.9087 4.36237C25.9087 4.06794 25.9884 3.9683 26.2015 3.70188C26.4808 3.35274 26.9028 2.82526 26.9028 1.87703C26.9028 1.3623 26.4855 0.945068 25.9708 0.945068C25.4562 0.945068 25.0388 1.3623 25.0388 1.87696C25.0388 2.1714 24.9591 2.27104 24.7459 2.53745C24.4666 2.88654 24.0447 3.41407 24.0447 4.36231C24.0447 5.31055 24.4667 5.83808 24.7459 6.18716C24.959 6.45358 25.0388 6.55322 25.0388 6.84765C25.0388 7.14196 24.9591 7.2416 24.7459 7.50796C24.4667 7.85704 24.0447 8.38451 24.0447 9.33269C24.0447 9.84741 24.462 10.2646 24.9766 10.2646C25.4913 10.2646 25.9086 9.84735 25.9086 9.33269C25.9086 9.03838 25.9883 8.93874 26.2015 8.67238C26.4807 8.3233 26.9027 7.79583 26.9027 6.84765C26.9027 5.89942 26.4807 5.37182 26.2015 5.0228C25.9884 4.75645 25.9087 4.65681 25.9087 4.36237Z" fill="white"/>
<path d="M31.5514 27.1137L23.4011 18.9634H25.1632V12.1289H16.5666L4.71067 0.27298C4.53588 0.0981872 4.29887 0 4.05169 0C3.80452 0 3.56745 0.0982503 3.39272 0.27298L0.756745 2.90901C0.392771 3.27299 0.392771 3.86306 0.756745 4.22703L8.6586 12.1289L15.4931 18.9634L27.5975 31.0678C27.7723 31.2426 28.0094 31.3408 28.2565 31.3408C28.5037 31.3408 28.7408 31.2426 28.9155 31.0678L31.5515 28.4318C31.9154 28.0678 31.9154 27.4777 31.5514 27.1137Z" fill="white"/>
<path d="M31.3762 12.1289H27.027V18.9634H31.3762C31.8909 18.9634 32.3081 18.5461 32.3081 18.0314V13.0609C32.3081 12.5462 31.8908 12.1289 31.3762 12.1289Z" fill="white"/>
</svg>
