<svg width="50" height="50" viewBox="0 0 50 50" fill="none" xmlns="http://www.w3.org/2000/svg">
<circle cx="24.9999" cy="24.9999" r="24.2382" stroke="white"/>
<path d="M30.5 28.5H29.71L29.43 28.23C30.41 27.09 31 25.61 31 24C31 20.41 28.09 17.5 24.5 17.5C20.91 17.5 18 20.41 18 24C18 27.59 20.91 30.5 24.5 30.5C26.11 30.5 27.59 29.91 28.73 28.93L29 29.21V30L34 34.99L35.49 33.5L30.5 28.5V28.5ZM24.5 28.5C22.01 28.5 20 26.49 20 24C20 21.51 22.01 19.5 24.5 19.5C26.99 19.5 29 21.51 29 24C29 26.49 26.99 28.5 24.5 28.5Z" fill="white"/>
</svg>
