<svg width="14" height="14" viewBox="0 0 14 14" fill="none" xmlns="http://www.w3.org/2000/svg">
<path d="M13.6246 10.3751L11.4166 8.15653C10.9155 7.65003 10.1021 7.64905 9.5998 8.15435C9.59907 8.1551 9.59838 8.15579 9.59764 8.15653L8.3326 9.43218C8.23688 9.52894 8.08605 9.54231 7.9751 9.46389C7.2827 8.97595 6.63455 8.42706 6.03824 7.82375C5.50417 7.28642 5.01288 6.70758 4.56887 6.09248C4.48839 5.98199 4.50008 5.82878 4.59635 5.73198L5.89284 4.42462C6.39339 3.9189 6.39339 3.10004 5.89284 2.59432L3.6849 0.367868C3.17611 -0.122623 2.37469 -0.122623 1.8659 0.367868L1.1666 1.07303C0.110482 2.12602 -0.26654 3.68956 0.192249 5.11396C0.534603 6.15608 1.01853 7.14533 1.63017 8.05351C2.18081 8.88612 2.81253 9.66116 3.51598 10.3672C4.28075 11.1439 5.12788 11.8333 6.04215 12.4233C7.0472 13.0846 8.15074 13.5795 9.31086 13.8891C9.60911 13.9632 9.91518 14.0005 10.2223 14C11.2753 13.9935 12.2827 13.5661 13.0235 12.8115L13.6246 12.2054C14.1251 11.6997 14.1251 10.8808 13.6246 10.3751ZM13.0682 11.665C13.0677 11.6656 13.0672 11.6661 13.0667 11.6666L13.0706 11.6547L12.4695 12.2609C11.6972 13.0495 10.5724 13.374 9.50326 13.1166C8.42615 12.8259 7.40222 12.3631 6.47028 11.7459C5.60445 11.1879 4.80206 10.5356 4.07766 9.80067C3.41114 9.13348 2.81234 8.40088 2.29007 7.61381C1.7188 6.76691 1.26664 5.84433 0.946432 4.87231C0.579354 3.73041 0.883541 2.47742 1.7322 1.63562L2.4315 0.930459C2.62593 0.73352 2.94186 0.732824 3.13711 0.928881C3.13762 0.929391 3.13817 0.929902 3.13868 0.930459L5.34662 3.15691C5.54192 3.35297 5.54261 3.67155 5.34819 3.86844C5.34768 3.86895 5.34717 3.86946 5.34662 3.87002L4.05013 5.17738C3.67813 5.54841 3.63135 6.13802 3.94014 6.56398C4.40906 7.21293 4.92798 7.82357 5.49202 8.39034C6.12088 9.02721 6.80453 9.60656 7.53495 10.1216C7.957 10.4185 8.52919 10.3684 8.89429 10.0028L10.1475 8.71917C10.342 8.52223 10.6579 8.52154 10.8532 8.71759C10.8537 8.7181 10.8542 8.71862 10.8547 8.71917L13.0666 10.9536C13.262 11.1496 13.2627 11.4681 13.0682 11.665Z" fill="#C09E5F"/>
</svg>
