<svg width="24" height="24" viewBox="0 0 24 24" fill="none" xmlns="http://www.w3.org/2000/svg">
<path d="M-6.10352e-05 18.9984V21C-6.10352e-05 22.6547 4.03119 24 8.99994 24C13.9687 24 17.9999 22.6547 17.9999 21V18.9984C16.064 20.3625 12.5249 21 8.99994 21C5.47494 21 1.93588 20.3625 -6.10352e-05 18.9984ZM14.9999 6C19.9687 6 23.9999 4.65469 23.9999 3C23.9999 1.34531 19.9687 0 14.9999 0C10.0312 0 5.99994 1.34531 5.99994 3C5.99994 4.65469 10.0312 6 14.9999 6ZM-6.10352e-05 14.0812V16.5C-6.10352e-05 18.1547 4.03119 19.5 8.99994 19.5C13.9687 19.5 17.9999 18.1547 17.9999 16.5V14.0812C16.064 15.675 12.5203 16.5 8.99994 16.5C5.47963 16.5 1.93588 15.675 -6.10352e-05 14.0812ZM19.4999 14.5969C22.1859 14.0766 23.9999 13.1109 23.9999 12V9.99844C22.9124 10.7672 21.314 11.2922 19.4999 11.6156V14.5969ZM8.99994 7.5C4.03119 7.5 -6.10352e-05 9.17812 -6.10352e-05 11.25C-6.10352e-05 13.3219 4.03119 15 8.99994 15C13.9687 15 17.9999 13.3219 17.9999 11.25C17.9999 9.17812 13.9687 7.5 8.99994 7.5ZM19.2796 10.1391C22.0921 9.63281 23.9999 8.63906 23.9999 7.5V5.49844C22.3359 6.675 19.4765 7.30781 16.4671 7.45781C17.8499 8.12813 18.8671 9.02813 19.2796 10.1391Z" fill="#C09E5F"/>
</svg>
