<svg width="121" height="59" viewBox="0 0 121 59" fill="none" xmlns="http://www.w3.org/2000/svg">
<path d="M120.995 36.0778C119.471 36.4587 119.357 37.2587 119.357 38.4396C119.395 44.4585 119.319 50.5154 119.395 56.5342C119.395 57.9818 119.052 58.477 117.49 58.477C102.938 58.4008 88.4246 58.2485 73.8727 58.5532C66.5206 58.7056 59.1685 58.9341 51.8164 58.7818C35.7027 58.4389 19.5889 58.7056 3.47521 58.6294C1.98955 58.6294 1.6848 58.0961 1.72289 56.7628C1.79908 50.7439 1.76099 44.687 1.76099 38.6682C1.76099 37.792 2.10383 36.8016 0.580076 36.573C-0.372272 36.4206 0.00866719 35.5064 0.580076 35.1635C2.82762 33.7541 5.11325 32.3827 7.43698 31.0494C7.97029 30.7447 8.69408 30.6685 9.22739 31.1256C9.98927 31.7732 8.88455 31.8494 8.80836 32.2684C8.69408 32.8017 8.84645 33.1446 9.34167 33.335C9.87499 33.5255 10.4083 33.3731 10.6369 32.8398C11.0178 31.9637 10.9797 30.9732 10.0655 30.5161C8.84645 29.8685 9.34167 29.4495 10.1036 28.9542C10.5607 28.6495 11.1321 28.3828 11.513 28.0019C13.0368 26.5543 14.4082 26.5162 15.7795 28.2305C16.4652 29.0685 17.4557 28.9923 18.408 28.9923C26.7887 28.9923 35.1693 29.0685 43.55 28.9542C45.569 28.9161 46.8642 29.5256 47.9689 31.1637C48.5784 32.0779 49.1498 33.8684 50.4069 33.4493C51.6259 33.0303 50.8259 31.3161 50.9402 30.2113C51.0545 29.259 50.9783 28.3066 50.9783 27.3543C50.9402 25.9448 50.6736 24.4592 52.9592 24.7258C53.8735 24.8401 53.8354 24.002 53.8354 23.3544C53.8354 21.4497 53.9115 19.545 53.8354 17.6403C53.7973 16.4213 54.0258 15.5071 55.3591 15.2404C56.7686 14.9357 57.0733 13.9833 56.9972 12.6881C56.921 11.1644 56.9972 9.64062 56.9591 8.11687C56.9591 7.12643 57.2638 6.28836 57.8733 5.48839C58.9018 4.1551 59.4352 2.63135 59.4352 0.955214C59.4352 0.307618 59.7018 -0.0352273 60.3113 0.00286664C60.9589 0.00286664 61.1875 0.383806 61.0732 1.0314C60.8446 2.51706 61.5303 3.88845 62.3303 4.84079C63.5493 6.28836 64.0445 7.69784 63.9302 9.52634C63.8541 10.5549 64.0064 11.5834 63.8921 12.5739C63.7398 13.9452 64.1588 14.9357 65.5302 15.3928C66.5968 15.7737 66.8635 16.5356 66.8254 17.6023C66.7492 19.5069 66.8635 21.4116 66.7873 23.3163C66.7492 24.4972 67.092 25.1448 68.3872 24.9925C69.7586 24.802 69.9491 25.602 69.911 26.7067C69.8348 28.6114 69.8729 30.5161 69.8729 32.4208C69.8729 32.8017 69.8348 33.2969 70.2919 33.335C70.5205 33.3731 70.7871 33.0303 71.0157 32.8398C71.0538 32.8017 71.0919 32.7636 71.13 32.6874C72.5395 28.9542 75.5108 28.9161 78.8631 28.9923C86.1771 29.1828 93.453 28.9923 100.767 29.0685C102.443 29.0685 103.929 28.84 105.034 27.5067C106.405 25.8686 107.738 25.9829 109.148 27.4686C109.491 27.8495 109.948 28.0781 110.367 28.3828C111.205 28.9923 111.776 29.4876 110.367 30.1732C109.491 30.5923 109.567 31.5446 109.795 32.3827C109.948 32.916 110.443 32.9541 110.9 32.8017C111.357 32.6493 111.471 32.3065 111.129 31.9256C110.214 30.8208 111.091 30.8208 111.814 30.7827C113.033 30.6685 114.176 30.8589 115.205 31.697C117.071 33.1065 119.052 34.554 120.995 36.0778ZM88.3865 29.6399C84.12 29.6399 79.8916 29.678 75.6251 29.6399C74.6346 29.6399 73.9489 29.8685 73.4156 30.7446C72.9204 31.6208 72.2347 32.4208 71.7014 33.2588C70.6348 35.0493 71.0157 35.773 73.0728 35.773C78.1393 35.773 83.2439 35.5445 88.3103 35.8492C92.9959 36.154 97.072 35.5064 100.081 31.5446C100.615 30.8208 101.415 30.5923 102.291 30.7446C103.091 30.897 103.624 31.1637 102.596 31.8113C102.1 32.116 102.024 32.497 102.443 32.8779C102.824 33.2208 103.281 33.1065 103.662 32.8398C104.538 32.2303 104.348 30.7447 103.319 30.0971C102.519 29.6399 101.643 29.6018 100.729 29.6018C96.6529 29.6399 92.5007 29.6399 88.3865 29.6399ZM31.5123 29.8685C27.2458 29.8685 23.0174 29.8685 18.7509 29.8685C17.9128 29.8685 17.1128 29.9828 16.351 30.3256C15.4367 30.7827 15.3224 31.5446 15.5891 32.4208C15.8176 33.0684 16.3129 33.6398 16.9985 33.2969C17.6461 32.9922 17.4938 32.4208 16.9224 31.9256C16.2748 31.3922 16.7319 31.0494 17.2271 30.897C18.0271 30.6304 18.7128 30.9732 19.3604 31.4303C20.8079 32.5351 22.2936 33.6398 23.7793 34.7445C24.4269 35.2397 24.9983 35.8111 25.9506 35.8111C33.4932 35.8111 41.0358 35.8111 48.5784 35.8111C49.8736 35.8111 49.7593 35.2016 49.1498 34.4398C48.3879 33.4493 47.5118 32.497 46.8261 31.4303C46.0642 30.2494 45.0738 29.8304 43.6643 29.8685C39.6263 29.9447 35.5884 29.8685 31.5123 29.8685ZM110.633 46.7441C110.633 46.7441 110.595 46.7441 110.633 46.7441C110.595 44.8394 110.595 42.9347 110.595 41.03C110.595 37.0682 110.595 37.1444 106.672 37.3349C105.186 37.4111 104.919 37.9825 104.957 39.2777C105.034 43.6585 104.919 48.0393 104.995 52.4201C105.034 56.839 104.157 56.2295 109.148 56.3057C110.329 56.3057 110.71 55.8866 110.671 54.7438C110.595 52.0772 110.633 49.4107 110.633 46.7441ZM21.3032 46.9727C21.3413 46.9727 21.3413 46.9727 21.3793 46.9727C21.3793 45.068 21.3793 43.1633 21.3793 41.2586C21.3413 36.7254 21.8746 37.6777 17.7223 37.4873C16.1986 37.4111 15.9319 38.0206 15.9319 39.3539C15.97 43.7728 15.9319 48.2298 15.97 52.6487C16.0081 56.6866 15.17 56.1914 19.5889 56.2676C20.8841 56.3057 21.3793 55.9247 21.3413 54.5533C21.227 52.0772 21.3032 49.5249 21.3032 46.9727ZM15.0177 46.9727C15.0177 44.8775 15.0558 42.7823 15.0177 40.6872C14.9796 37.1444 15.5129 37.6396 11.9321 37.4873C10.2559 37.4111 9.95118 38.0587 9.98927 39.5443C10.0655 44.1537 10.0274 48.8012 10.0274 53.4105C10.0274 56.2676 10.0274 56.2676 12.9225 56.2295C13.0368 56.2295 13.1892 56.2295 13.3034 56.2295C14.5986 56.3819 15.1319 55.8866 15.0558 54.5152C14.9796 52.0391 15.0177 49.5249 15.0177 46.9727ZM111.586 46.7441C111.624 49.3345 111.662 51.963 111.586 54.5533C111.548 55.8485 111.929 56.458 113.3 56.2676C113.719 56.1914 114.214 56.1914 114.633 56.2676C116.195 56.4961 116.576 55.7723 116.538 54.3248C116.462 49.8297 116.5 45.2965 116.5 40.8014C116.5 37.3349 116.5 37.373 113.148 37.2587C112.005 37.2206 111.548 37.5635 111.548 38.7444C111.624 41.4109 111.586 44.0775 111.586 46.7441ZM99.4719 46.706C99.4719 49.2964 99.5861 51.9249 99.4338 54.4772C99.3195 56.3818 100.386 56.3057 101.681 56.2676C102.977 56.2295 104.196 56.5342 104.119 54.4391C104.005 49.8297 104.081 45.1822 104.081 40.5729C104.081 37.2587 104.081 37.2968 100.881 37.2587C99.8528 37.2587 99.3957 37.5635 99.4338 38.6682C99.4719 41.3729 99.4719 44.0394 99.4719 46.706ZM9.03692 47.125C9.07502 44.4585 8.96074 41.7919 9.07502 39.1634C9.15121 37.4492 8.16076 37.5254 7.01795 37.6016C5.95132 37.6777 4.69422 37.1825 4.73231 39.1253C4.8085 44.3061 4.8085 49.5249 4.73231 54.7057C4.69422 56.3438 5.60847 56.3819 6.78938 56.3438C7.89411 56.3057 9.15121 56.6485 9.03692 54.7438C8.92264 52.1915 9.03692 49.6392 9.03692 47.125ZM86.5961 47.125C86.5961 44.4585 86.5199 41.83 86.6342 39.1634C86.6723 37.6777 85.9866 37.4492 84.8057 37.5635C83.7391 37.6396 82.482 37.1444 82.5201 39.0872C82.5963 44.268 82.5963 49.4488 82.5201 54.6295C82.482 56.458 83.5867 56.2295 84.7295 56.3057C86.1009 56.3818 86.6723 56.0009 86.6342 54.5152C86.5199 52.0391 86.5961 49.6011 86.5961 47.125ZM35.3217 46.8965C35.3217 44.3061 35.2455 41.7157 35.3598 39.0872C35.3979 37.792 34.8646 37.373 33.6837 37.5254C32.6551 37.6777 31.0933 36.8397 31.0933 38.9729C31.1314 44.2299 31.1314 49.4869 31.0933 54.7438C31.0933 56.6485 32.4266 56.1533 33.4551 56.2295C34.5979 56.3057 35.3979 56.1533 35.3598 54.6676C35.2455 52.1153 35.3217 49.5249 35.3217 46.8965ZM78.1393 46.7822C78.1393 49.4488 78.2155 52.1153 78.1012 54.7819C78.025 56.5723 79.2059 56.2676 80.2344 56.3057C81.3773 56.3818 82.1772 56.2676 82.1391 54.7438C82.0629 49.4869 82.0629 44.2299 82.1391 38.9729C82.1772 37.2587 81.0725 37.6396 80.0821 37.6016C79.0916 37.6016 78.025 37.3349 78.0631 39.011C78.2155 41.5633 78.1393 44.1918 78.1393 46.7822ZM30.7124 47.0107C30.7124 44.3442 30.6362 41.7157 30.7504 39.0491C30.7885 37.6777 30.179 37.4492 29.0362 37.5635C28.0458 37.6777 26.8268 37.1825 26.8268 39.011C26.903 44.268 26.903 49.4869 26.8268 54.7438C26.8268 56.458 27.8934 56.2295 28.96 56.3057C30.2552 56.3818 30.7885 56.0009 30.7124 54.6295C30.6362 52.0772 30.7124 49.563 30.7124 47.0107ZM74.1013 46.8584C74.1013 49.5249 74.1394 52.1915 74.0632 54.8581C74.0251 56.3057 74.9394 56.2676 75.9298 56.2676C76.9584 56.2676 77.7583 56.2676 77.7202 54.82C77.6441 49.563 77.6821 44.3061 77.7583 39.011C77.7583 37.4492 76.8822 37.5254 75.8155 37.4873C74.7108 37.4873 74.0251 37.6396 74.0632 39.011C74.1394 41.6776 74.1013 44.268 74.1013 46.8584ZM12.6939 36.0778C15.8176 36.0778 18.9032 36.0778 22.0269 36.0778C22.4841 36.0778 23.1698 36.3064 23.3602 35.6969C23.5507 35.1255 22.865 34.8969 22.4841 34.5921C21.4936 33.8303 20.427 33.1065 19.3985 32.3827C18.7128 31.8875 18.1414 31.6208 18.0271 32.8779C17.9509 33.6779 17.3795 33.9064 16.6557 33.8684C15.8938 33.8303 15.2462 33.5636 15.0558 32.7636C14.8272 31.9637 14.7129 31.1256 15.3224 30.4399C15.8557 29.8304 15.5891 29.4495 15.1319 29.0304C14.3701 28.3447 13.6463 27.5448 12.5035 28.4209C11.6273 29.1066 10.294 29.3733 11.3987 31.0875C11.8559 31.7732 12.0844 33.2969 10.675 33.8684C9.7988 34.2112 8.38933 34.3636 8.16076 33.335C7.62745 31.0113 6.63701 32.3065 5.72275 32.8398C4.8085 33.3731 3.89425 33.9826 3.01809 34.5921C2.56096 34.7826 1.72289 34.8969 1.98955 35.6588C2.18002 36.2302 2.86571 36.0397 3.36093 36.0778C6.48463 36.0778 9.57024 36.0778 12.6939 36.0778ZM86.9771 46.8203C86.9771 49.4107 87.0532 52.0011 86.939 54.6295C86.9009 56.0009 87.4342 56.3438 88.7294 56.3438C89.9103 56.3057 90.596 56.1914 90.596 54.7057C90.5198 49.5249 90.5198 44.3061 90.596 39.1253C90.6341 37.6016 89.796 37.6396 88.6913 37.5635C87.3961 37.5254 86.8628 37.8682 86.939 39.2396C87.0532 41.7538 86.9771 44.268 86.9771 46.8203ZM39.7787 46.9346C39.7787 49.5249 39.8549 52.1534 39.7406 54.7438C39.7025 56.0771 40.2739 56.3438 41.4548 56.3438C42.5215 56.3057 43.2453 56.2295 43.2453 54.82C43.1691 49.563 43.1691 44.268 43.2453 39.011C43.2453 37.5635 42.4834 37.6016 41.4548 37.5635C40.2739 37.5254 39.7406 37.8301 39.7787 39.1253C39.8168 41.7157 39.7787 44.3061 39.7787 46.9346ZM97.5291 35.6207C104.615 35.6207 111.548 35.6207 119.014 35.6207C116.995 34.0969 115.433 32.9541 113.871 31.7732C113.376 31.4303 112.767 31.0875 112.538 31.9637C112.043 33.6398 110.976 34.2112 109.567 33.335C108.157 32.4589 108.462 31.1256 109.338 29.9066C109.567 29.6018 109.871 29.1828 109.567 28.9161C108.767 28.1924 108.043 26.7829 106.786 27.4305C105.834 27.9638 104.081 28.4971 105.072 30.4018C105.415 31.0494 105.3 31.7732 105.148 32.4589C104.995 33.2208 104.5 33.716 103.738 33.8303C102.976 33.9445 101.948 34.135 101.643 33.3731C100.805 31.1256 100.119 32.8398 99.4719 33.4112C98.7862 33.9826 98.0243 34.554 97.5291 35.6207ZM39.093 46.9727C39.093 44.3061 39.0549 41.6395 39.093 38.9729C39.1311 37.9444 38.8264 37.4492 37.7216 37.5254C36.7312 37.6016 35.6265 37.2587 35.6265 38.8967C35.6646 44.2299 35.6646 49.5249 35.6646 54.8581C35.6646 56.3057 36.5788 56.2295 37.5693 56.2676C38.7121 56.3057 39.1311 55.9247 39.093 54.7438C39.0549 52.1915 39.093 49.563 39.093 46.9727ZM46.8642 46.8965H46.8261C46.8261 44.2299 46.788 41.5633 46.8261 38.9348C46.8642 37.8301 46.3689 37.5635 45.3404 37.5635C44.35 37.5635 43.8167 37.7539 43.8167 38.8967C43.8548 44.2299 43.8548 49.5249 43.8167 54.8581C43.8167 56.0771 44.35 56.3438 45.4166 56.3438C46.4832 56.3438 46.9023 56.0009 46.8642 54.8962C46.8261 52.2296 46.8642 49.563 46.8642 46.8965ZM52.7687 44.6108C52.7687 46.9346 52.7306 49.2964 52.7687 51.6201C52.7687 52.0772 52.5402 53.1058 53.4925 52.6867C54.5591 52.2296 55.8924 51.8868 55.8924 50.1344C55.8162 46.0203 55.8543 41.9062 55.8924 37.792C55.8924 36.7254 55.5115 36.3445 54.4449 36.3445C53.4544 36.3825 52.7306 36.4206 52.7306 37.7158C52.8068 40.0396 52.7687 42.3252 52.7687 44.6108ZM94.0244 46.8965C94.0244 44.2299 93.9863 41.6014 94.0244 38.9348C94.0625 37.8301 93.6435 37.5254 92.5769 37.5254C91.6245 37.5635 91.015 37.6396 91.015 38.8206C91.0531 44.1918 91.0531 49.563 91.015 54.9343C91.015 56.1152 91.5864 56.2676 92.5388 56.2676C93.5673 56.2676 94.0244 55.9247 93.9863 54.82C93.9863 52.2296 94.0244 49.563 94.0244 46.8965ZM71.2443 46.7822C71.2443 49.4488 71.2824 52.0772 71.2443 54.7438C71.2443 55.5438 71.2062 56.2676 72.349 56.2676C73.4918 56.2676 73.5299 55.5819 73.5299 54.7819C73.5299 49.5249 73.568 44.268 73.568 39.011C73.568 38.2111 73.568 37.5254 72.3871 37.5254C71.2824 37.5254 71.2062 38.1349 71.2062 39.011C71.2443 41.6014 71.2443 44.1918 71.2443 46.7822ZM24.0078 46.7822C24.0459 49.4488 24.0459 52.0772 24.0459 54.7438C24.0459 55.6581 24.1602 56.3438 25.3792 56.3057C26.4839 56.2676 26.5601 55.62 26.5601 54.82C26.5601 49.563 26.522 44.3061 26.5601 39.0872C26.5601 38.0968 26.3696 37.5635 25.2268 37.5635C24.084 37.5635 24.0459 38.173 24.0459 39.011C24.0078 41.6014 24.0078 44.1918 24.0078 46.7822ZM49.7593 46.8584C49.7593 44.268 49.7593 41.6776 49.7593 39.0491C49.7593 38.2491 49.7974 37.5254 48.6165 37.5254C47.5118 37.5254 47.3975 38.1349 47.3975 38.9729C47.3975 44.2299 47.3975 49.4869 47.3975 54.7438C47.3975 55.62 47.588 56.2295 48.6546 56.1914C49.6831 56.1914 49.7593 55.5438 49.7593 54.7819C49.7593 52.1915 49.7593 49.5249 49.7593 46.8584ZM68.3491 44.8775C68.3491 42.668 68.3491 40.4205 68.3491 38.2111C68.3491 37.2206 68.4253 36.3445 66.9397 36.3445C65.5302 36.3445 65.6445 37.1825 65.6445 38.0968C65.6445 41.6395 65.6445 45.2203 65.6445 48.7631C65.6445 49.4488 65.6445 50.1725 65.6445 50.8582C65.6826 52.1534 66.8254 52.6867 67.7015 52.7248C68.8444 52.7629 68.2729 51.582 68.311 50.9344C68.4253 48.9154 68.3491 46.8965 68.3491 44.8775ZM94.4816 46.8203C94.4816 49.4869 94.4816 52.1534 94.4816 54.82C94.4816 55.62 94.4816 56.3438 95.6625 56.3057C96.6529 56.2676 96.8053 55.6962 96.8053 54.9343C96.8053 49.6011 96.8053 44.268 96.8053 38.9348C96.8053 38.173 96.7291 37.6016 95.7006 37.5635C94.5577 37.5254 94.5197 38.173 94.5197 39.011C94.4816 41.6014 94.4816 44.1918 94.4816 46.8203ZM36.7312 57.8294C40.5406 57.8294 44.35 57.8294 48.1594 57.7913C48.6927 57.7913 49.5688 58.0199 49.5688 57.258C49.6069 56.3057 48.6546 56.6104 48.0832 56.6104C40.5787 56.5723 33.1123 56.5723 25.6078 56.5723C25.0364 56.5723 24.084 56.3057 24.1221 57.2199C24.1602 58.1342 25.1126 57.7913 25.684 57.7913C29.3791 57.8294 33.0742 57.8294 36.7312 57.8294ZM83.9676 57.7913C87.7008 57.7913 91.434 57.7913 95.2053 57.7913C95.7006 57.7913 96.5386 58.0961 96.6148 57.2961C96.691 56.4199 95.8529 56.6485 95.3196 56.6485C87.777 56.6485 80.2344 56.6485 72.6918 56.6485C72.1585 56.6485 71.3205 56.458 71.3586 57.258C71.3967 58.058 72.2347 57.8294 72.7299 57.8294C76.5012 57.8294 80.2344 57.8294 83.9676 57.7913ZM62.9779 21.3735C63.016 16.9547 63.016 16.9547 59.2447 17.3356C59.1685 17.3356 59.1304 17.3356 59.0542 17.3356C58.3304 17.3356 58.0257 17.6784 58.0257 18.3641C58.0257 20.2688 58.0257 22.1735 58.0257 24.0782C58.0257 24.5353 58.14 24.9925 58.7495 24.9544C59.2447 24.9163 59.2828 24.4972 59.3209 24.1163C59.359 22.783 59.3209 21.4497 59.359 20.1164C59.3971 19.2784 59.0161 18.1737 60.4637 18.1737C61.9875 18.1356 61.6827 19.3546 61.7208 20.2307C61.7589 21.564 61.7208 22.8973 61.7589 24.2306C61.7589 24.6496 61.8732 24.9925 62.3684 24.9925C62.8636 24.9925 63.016 24.6496 63.016 24.2306C62.9779 23.2782 62.9779 22.3259 62.9779 21.3735ZM63.5112 40.8395C63.5112 36.5349 63.435 36.3825 60.7304 36.3825C58.0257 36.3825 57.6067 36.8016 57.5686 39.5824C57.5686 40.8014 57.5686 41.9824 57.5686 43.2014C57.5686 43.6585 57.5686 44.1918 58.1781 44.1537C58.7495 44.1156 58.7495 43.5823 58.7495 43.1252C58.7495 41.9824 58.7876 40.8395 58.7495 39.6967C58.7114 38.4015 58.9018 37.5254 60.578 37.5254C62.2922 37.5254 62.3684 38.5539 62.4065 39.7729C62.4065 40.8395 62.3684 41.9443 62.4065 43.0109C62.4065 43.468 62.2541 44.2299 62.9779 44.1918C63.7017 44.1537 63.435 43.3918 63.4731 42.9347C63.5493 42.249 63.5112 41.5633 63.5112 40.8395ZM60.2732 26.9734C62.597 26.9734 64.9588 26.9734 67.2825 26.9734C67.8158 26.9734 68.5777 27.1638 68.6158 26.3258C68.6539 25.4877 67.8539 25.6401 67.3206 25.6401C62.7112 25.6401 58.0638 25.6401 53.4544 25.6401C52.9211 25.6401 52.1592 25.4496 52.1211 26.2877C52.083 27.1257 52.883 26.9734 53.4163 26.9734C55.7401 26.9734 57.9876 26.9734 60.2732 26.9734ZM107.853 57.7913C110.329 57.7913 112.805 57.7913 115.281 57.7913C115.7 57.7913 116.309 57.9056 116.347 57.2961C116.424 56.5342 115.738 56.6104 115.281 56.6104C110.405 56.6104 105.491 56.6104 100.615 56.6104C100.196 56.6104 99.6242 56.6104 99.6242 57.2199C99.6242 57.8294 100.196 57.7913 100.653 57.7913C103.015 57.7913 105.415 57.7913 107.853 57.7913ZM13.0368 57.8294C15.3986 57.8294 17.7223 57.8294 20.0842 57.8294C20.5413 57.8294 21.227 57.9818 21.1889 57.1818C21.1508 56.5723 20.5794 56.6485 20.1603 56.6485C15.4748 56.6485 10.7511 56.6485 6.0656 56.6485C5.60847 56.6485 4.88469 56.5342 4.96088 57.2961C5.03706 58.0199 5.72275 57.8294 6.17988 57.8294C8.46552 57.8294 10.7511 57.7913 13.0368 57.8294ZM24.8459 36.3825C24.8459 36.5349 24.8459 36.6873 24.8078 36.8016C32.998 36.8016 41.2263 36.8016 49.4165 36.8016C49.4165 36.6492 49.4165 36.4968 49.4165 36.3825C41.2263 36.3825 33.0361 36.3825 24.8459 36.3825ZM65.7588 52.5344C65.3397 53.6772 64.7683 54.7438 64.8064 56.0771C64.8445 57.2961 64.9207 58.058 66.5206 58.058C68.0825 58.058 68.311 57.4485 68.4253 56.0771C68.5777 53.9819 67.5492 53.1058 65.7588 52.5344ZM54.902 24.802C56.0448 23.8877 55.6258 23.0116 55.702 22.2116C55.7781 21.4878 55.5496 20.726 55.9686 19.8117C56.6162 21.4878 55.6639 23.1259 56.921 24.8782C57.4543 22.7068 57.1876 20.9164 57.1876 19.126C57.1876 18.6308 57.4924 17.7927 56.6543 17.7546C55.9305 17.7546 54.902 17.9832 54.7877 18.7832C54.521 20.764 54.5591 22.6687 54.902 24.802ZM63.3969 31.3922C63.3969 27.9257 63.3207 27.8876 59.9685 27.9257C59.1304 27.9257 58.2543 27.8114 57.9495 28.878C57.5686 30.2875 57.6828 31.7732 57.7971 33.2208C57.8352 33.5636 58.0638 33.7922 58.4066 33.7922C58.7876 33.7922 58.9399 33.4874 58.9399 33.1446C58.9399 32.2684 58.9018 31.3922 58.9399 30.478C58.978 28.9542 60.1589 28.1924 61.4922 28.84C62.597 29.3733 61.9875 30.4018 62.1779 31.2018C62.3684 32.0398 61.6827 33.6017 62.7493 33.6017C63.9683 33.6398 63.1303 32.0779 63.3969 31.3922ZM53.0354 55.9247C52.9973 57.0675 52.6925 58.3246 54.7877 58.2485C56.8829 58.1723 56.121 56.7628 56.2734 55.7343C56.3496 55.2009 56.3496 54.5914 55.9686 54.0962C55.5877 53.6391 56.2734 52.382 55.1686 52.6487C54.2925 52.8391 53.1878 53.2581 53.0735 54.5152C52.9973 54.9343 53.0354 55.3914 53.0354 55.9247ZM50.7117 34.7064C50.7117 34.8588 50.7117 34.9731 50.7117 35.1255C57.1876 35.1255 63.6255 35.1255 70.1015 35.1255C70.1015 34.9731 70.1015 34.8588 70.1015 34.7064C63.6255 34.7064 57.1876 34.7064 50.7117 34.7064ZM52.3497 33.9826C53.3782 33.0684 52.883 32.116 53.0735 31.3161C53.264 30.4399 52.464 28.9161 53.9877 28.878C55.6258 28.8019 54.8258 30.3637 54.9782 31.2018C55.0544 31.697 54.9782 32.1922 55.0163 32.7255C55.0544 33.1446 54.902 33.716 55.5496 33.716C56.0067 33.716 56.0829 33.2208 56.0829 32.8398C56.0829 31.5065 56.121 30.1732 56.0448 28.878C55.9686 27.5448 54.8639 27.9638 54.1782 28.0019C53.4163 28.04 52.1592 27.4686 52.083 28.878C51.9688 30.4399 51.8164 32.0779 52.3497 33.9826ZM63.7398 24.802C63.9302 24.802 64.1207 24.802 64.2731 24.802C64.8826 23.2402 64.1969 21.4878 64.8064 19.545C65.3397 21.5259 64.6921 23.2782 65.4921 24.8401C65.9492 22.9354 65.8349 21.0307 65.7207 19.126C65.6826 18.4022 64.9207 18.2118 64.3112 18.0594C63.7779 17.9451 63.7398 18.4022 63.7398 18.7832C63.7398 20.8021 63.7398 22.783 63.7398 24.802ZM65.2635 34.1731C65.873 32.6113 65.6064 31.4684 65.6826 30.4018C65.7206 29.6399 65.5302 28.7638 66.7492 28.8019C67.892 28.84 67.7015 29.7161 67.8158 30.4399C67.9682 31.5065 67.3968 32.7636 68.7301 34.1731C68.7301 31.9637 68.8444 30.2875 68.692 28.6495C68.5777 27.5067 67.5111 27.9638 66.8254 27.9638C66.1397 27.9638 65.0731 27.5448 64.9588 28.6495C64.8064 30.3256 64.6159 32.0018 65.2635 34.1731ZM71.7776 36.5349C71.7776 36.6111 71.7776 36.6873 71.7776 36.8016C79.9678 36.8016 88.158 36.8016 96.3863 36.8016C96.3863 36.7254 96.3863 36.6492 96.3863 36.5349C88.158 36.5349 79.9678 36.5349 71.7776 36.5349ZM56.1591 45.7917C59.1304 45.7917 61.7589 45.7917 64.3493 45.7917C64.5778 45.7917 64.8445 45.6013 64.7302 45.2584C64.6159 44.8775 64.2731 44.8775 63.9302 44.8775C62.216 44.8775 60.5018 44.8394 58.8257 44.8775C58.0638 44.9156 57.1876 44.5346 56.1591 45.7917ZM58.7114 52.0772C59.5494 51.5058 59.3209 50.8201 59.3209 50.2487C59.2828 49.0678 59.8161 48.725 60.9208 48.725C62.4446 48.7631 62.1398 49.8297 62.1779 50.744C62.1779 51.1249 62.1017 51.5439 62.4446 51.7725C62.5208 51.8487 62.8255 51.7725 62.9017 51.6582C63.435 51.1249 63.0922 48.0012 62.4065 47.8869C61.1875 47.6964 59.6256 47.2393 58.7876 48.0774C57.8733 49.0678 58.2923 50.6297 58.7114 52.0772ZM62.2922 57.9818C62.9398 57.3342 62.6731 56.6104 62.7112 55.9628C62.8255 54.4772 62.1398 53.7153 60.6161 53.6772C59.1304 53.6772 58.3304 54.3629 58.4066 55.8485C58.4447 56.5342 57.9495 57.677 58.8638 57.7532C59.6637 57.7913 59.1685 56.6104 59.3209 56.0009C59.359 55.8866 59.3209 55.7343 59.3209 55.62C59.4352 54.82 59.778 54.3248 60.6542 54.3629C61.4922 54.401 61.6446 54.9343 61.7589 55.62C61.9113 56.3818 61.4922 57.258 62.2922 57.9818ZM64.9207 40.3443C64.8826 39.2777 64.9207 38.2111 64.8826 37.1444C64.8826 36.6873 64.6159 36.4587 64.1588 36.4587C63.6255 36.4587 63.5874 36.8016 63.6636 37.2206C64.0064 39.2015 63.9302 41.2205 63.9302 43.2395C63.9302 43.6204 63.8541 44.1156 64.3493 44.1537C65.035 44.1918 64.8826 43.5823 64.8826 43.2014C64.9588 42.2109 64.9207 41.2586 64.9207 40.3443ZM60.578 16.6499C61.3779 16.2309 62.9017 17.1451 62.8636 15.7357C62.8255 14.4405 61.3399 15.0881 60.5399 15.05C59.7018 15.05 58.1781 14.4405 58.1781 15.6976C58.14 17.2594 59.778 16.1547 60.578 16.6499ZM100.005 36.4968C100.005 36.573 99.9671 36.6873 99.9671 36.7635C105.262 36.7635 110.595 36.7635 115.89 36.7635C115.89 36.6873 115.89 36.573 115.89 36.4968C110.595 36.4968 105.3 36.4968 100.005 36.4968ZM58.0257 49.6773C57.5686 49.2964 58.6733 47.8869 57.3781 47.925C56.0448 47.925 56.8067 49.2964 56.6162 50.0583C56.5781 50.1725 56.6162 50.3249 56.6162 50.4392C56.6924 51.0106 56.3496 51.8868 57.3019 51.9249C58.2542 51.963 57.9495 51.0487 58.0257 50.4773C58.0257 50.2868 58.0257 50.0964 58.0257 49.6773ZM56.5019 44.0394C56.6543 44.1156 56.8448 44.1918 56.9972 44.2299C57.0733 44.0394 57.1495 43.887 57.1876 43.6966C57.5305 41.449 56.921 39.1253 57.5686 36.9159C57.6447 36.6111 57.4162 36.4587 57.1495 36.4587C56.7686 36.4587 56.54 36.6492 56.54 36.9921C56.5019 39.3539 56.5019 41.7157 56.5019 44.0394ZM20.6937 36.8016C20.6937 36.7254 20.6937 36.6111 20.6937 36.5349C15.6272 36.5349 10.5226 36.5349 5.4561 36.5349C5.4561 36.6111 5.4561 36.7254 5.4561 36.8016C10.5226 36.8016 15.6272 36.8016 20.6937 36.8016ZM62.9779 13.6786C63.3207 12.65 63.1303 11.6215 63.1303 10.6692C63.1303 10.1739 62.8255 9.83109 62.3303 9.793C61.6827 9.71681 61.6065 10.2501 61.6065 10.6692C61.6065 11.6977 61.1875 12.7643 61.9113 13.7548C62.5589 13.1834 61.9494 12.3834 62.4827 11.812C62.8255 12.3834 62.3303 13.1072 62.9779 13.6786ZM64.9207 49.9821C64.9207 49.6773 64.9207 49.3345 64.9207 49.0297C64.8826 48.4583 64.9969 47.7726 64.1207 47.8488C63.3207 47.925 63.6255 48.5726 63.5874 49.0297C63.5493 49.7154 63.5874 50.4392 63.5874 51.1249C63.5874 51.5058 63.6636 51.9249 64.1207 52.001C64.6921 52.0772 64.8445 51.6201 64.8826 51.163C64.9207 50.7439 64.9207 50.363 64.9207 49.9821ZM117.262 48.2678C117.224 48.4964 117.109 48.8012 117.109 49.144C117.109 49.6773 116.919 50.4392 117.757 50.4392C118.633 50.4392 118.328 49.6392 118.366 49.144C118.405 48.5345 118.405 47.925 118.366 47.2774C118.366 46.8584 118.366 46.3251 117.719 46.3632C117.109 46.4012 117.071 46.8584 117.071 47.3155C117.109 47.5822 117.224 47.8869 117.262 48.2678ZM57.2638 33.5255C57.3781 31.9256 57.4543 30.2875 57.5686 28.6876C57.5686 28.4209 57.6447 28.1543 57.34 28.0781C56.9591 27.9638 56.7305 28.2305 56.6924 28.5733C56.6543 30.2494 56.4257 31.8875 57.2638 33.5255ZM57.7971 13.4119C58.4828 13.031 57.9495 12.1167 58.5971 11.8882C59.1304 12.1929 58.4828 12.8786 59.2066 13.2215C59.2066 12.3072 59.2066 11.5072 59.2066 10.6692C59.2066 10.2882 59.1685 9.83109 58.7114 9.793C58.2162 9.71681 57.8733 10.0978 57.8352 10.593C57.7971 11.5072 57.7971 12.4596 57.7971 13.4119ZM60.7684 13.7929C60.9208 13.831 61.0732 13.831 61.1875 13.869C61.1875 12.6119 61.1875 11.3549 61.1875 10.0978C61.1875 9.56444 60.9589 9.25969 60.3875 9.25969C59.8542 9.25969 59.5113 9.48825 59.5494 10.0597C59.5875 11.3549 59.359 12.65 59.778 14.1738C60.4256 12.9929 59.7399 11.7358 60.6161 10.4787C60.6542 11.812 60.7304 12.8024 60.7684 13.7929ZM63.2446 53.9819C63.2065 55.239 62.9017 56.5342 63.5874 57.677C64.0064 56.3819 64.4636 55.0486 63.2446 53.9819ZM62.6731 53.1058C61.3399 52.5725 60.0447 52.2677 58.2923 53.1058C60.1208 53.1058 61.3779 53.1058 62.6731 53.1058ZM61.1113 3.81226C61.0732 2.97419 60.7304 2.66944 60.1209 2.70753C59.4352 2.74563 59.3209 3.20275 59.359 3.77416C59.3971 4.34557 59.7399 4.49795 60.2351 4.49795C60.8827 4.53604 61.1113 4.1932 61.1113 3.81226ZM57.4924 58.2104C58.2923 56.839 57.7971 55.7343 58.14 54.7438C58.2162 54.5153 58.5971 54.0962 57.9876 54.0581C57.759 54.0581 57.34 54.3629 57.3019 54.5914C57.1876 55.62 57.1114 56.6866 57.4924 58.2104ZM55.4734 17.1832C56.0448 16.8404 57.0352 16.9166 57.1495 15.9642C57.2257 15.469 56.7686 15.3166 56.3876 15.5071C55.7401 15.8118 54.8258 15.8118 54.7496 16.8023C54.7496 17.1832 55.0925 17.2975 55.4734 17.1832ZM64.4636 47.0107C64.4636 46.9346 64.4636 46.8584 64.4636 46.7822C61.9494 46.7822 59.4352 46.7822 56.921 46.7822C56.921 46.8584 56.921 46.9346 56.921 47.0107C59.4352 47.0107 61.9494 47.0107 64.4636 47.0107Z" fill="white"/>
<path d="M79.6249 34.7824C78.8249 34.5538 77.4916 35.2776 77.6059 33.6015C77.6821 32.3444 78.2535 31.3158 79.5868 31.2778C81.0725 31.2397 81.6058 32.4206 81.682 33.7158C81.7582 35.43 80.3106 34.4395 79.6249 34.7824ZM80.9582 34.0205C81.0344 32.8777 80.8058 32.0015 79.5868 31.9634C78.7868 31.9254 78.3678 32.5729 78.2916 33.3348C78.2535 33.792 78.5964 34.4776 78.9392 33.8681C79.7773 32.3444 80.1201 34.1348 80.9582 34.0205Z" fill="white"/>
<path d="M91.9292 34.8206C90.9768 34.592 89.6436 35.3158 89.6816 33.6396C89.7197 32.3825 90.2911 31.3159 91.7006 31.3159C93.2625 31.3159 93.7196 32.573 93.7577 33.792C93.7958 35.392 92.4244 34.4015 91.9292 34.8206ZM92.8815 34.4015C93.2625 33.1063 92.9577 32.4587 92.2339 32.0397C91.7387 31.773 91.2435 31.8492 90.8245 32.2683C90.3292 32.8016 90.1388 33.373 90.7483 34.2872C91.434 32.6111 92.1197 33.2587 92.8815 34.4015Z" fill="white"/>
<path d="M41.9882 34.8206C41.2263 34.4778 39.7406 35.4301 39.8549 33.5635C39.9311 32.3064 40.5025 31.2779 41.8739 31.316C43.3977 31.3541 43.8548 32.535 43.931 33.7921C44.0072 35.392 42.6358 34.4778 41.9882 34.8206ZM41.7977 31.9255C41.1882 32.0017 40.7692 32.3826 40.5787 32.954C40.4644 33.2207 40.4263 33.6778 40.5787 33.8302C41.2644 34.5159 41.2644 33.4873 41.6072 33.3349C42.1025 33.1445 42.2167 33.6016 42.4834 33.8302C43.0548 34.3254 43.2834 33.9444 43.2453 33.4111C43.1691 32.535 42.712 32.0017 41.7977 31.9255Z" fill="white"/>
<path d="M29.7981 34.8206C28.8458 34.5539 27.5125 35.2777 27.6648 33.6016C27.7791 32.3826 28.3505 31.3159 29.7219 31.354C31.2076 31.354 31.7409 32.5349 31.7409 33.792C31.779 35.4682 30.3314 34.3253 29.7981 34.8206ZM31.0933 34.2492C31.1695 33.0302 31.0552 32.154 29.9505 31.9635C29.0362 31.8111 28.5791 32.4968 28.4267 33.2968C28.3505 33.792 28.6934 34.4015 29.0743 33.8682C29.8743 32.6873 30.2171 33.792 31.0933 34.2492Z" fill="white"/>
<path d="M14.2178 30.7829C14.1416 31.4686 13.7987 31.8495 13.1131 31.8114C12.4274 31.7734 12.0845 31.3162 12.1226 30.6686C12.1607 30.021 12.5036 29.602 13.1892 29.6401C13.8749 29.7163 14.1797 30.1734 14.2178 30.7829Z" fill="white"/>
<path d="M14.8272 34.8205C13.7224 34.8205 12.6177 34.8205 11.513 34.8205C12.6177 33.6777 13.7605 33.7539 14.8272 34.8205Z" fill="white"/>
<path d="M107.014 31.8496C106.329 31.8115 105.986 31.3924 105.986 30.7829C105.948 30.1734 106.253 29.6782 106.938 29.6782C107.624 29.6782 107.929 30.0973 107.967 30.7449C108.005 31.3544 107.7 31.7734 107.014 31.8496Z" fill="white"/>
<path d="M105.072 34.6684C106.214 33.6398 107.395 33.6398 108.919 34.6684C107.433 35.0874 106.253 34.8969 105.072 34.6684Z" fill="white"/>
<path d="M92.6149 42.8966C92.0435 42.0585 92.0816 41.2205 92.4244 40.0396C93.1101 41.2205 92.9196 42.0585 92.6149 42.8966Z" fill="white"/>
</svg>
