<svg width="24" height="25" viewBox="0 0 24 25" fill="none" xmlns="http://www.w3.org/2000/svg">
<path d="M22.8219 18.1201L19.1235 14.4348C18.2841 13.5934 16.9216 13.5918 16.0802 14.4312C16.0789 14.4324 16.0778 14.4336 16.0766 14.4348L13.9575 16.5538C13.7972 16.7145 13.5446 16.7367 13.3587 16.6065C12.1989 15.7959 11.1132 14.8842 10.1144 13.882C9.21978 12.9894 8.39684 12.0279 7.65309 11.0061C7.51829 10.8226 7.53788 10.5681 7.69913 10.4073L9.87082 8.23561C10.7093 7.39554 10.7093 6.03531 9.87082 5.19524L6.1724 1.49682C5.32015 0.68205 3.97773 0.68205 3.12548 1.49682L1.95411 2.66819C0.185063 4.41734 -0.446469 7.01457 0.322028 9.38068C0.895489 11.1118 1.70609 12.755 2.73063 14.2637C3.65298 15.6467 4.71114 16.9342 5.88945 18.1069C7.17048 19.3971 8.58948 20.5424 10.1209 21.5224C11.8044 22.621 13.6529 23.443 15.5962 23.9573C16.0958 24.0804 16.6085 24.1423 17.1229 24.1415C18.8867 24.1307 20.5742 23.4208 21.8151 22.1673L22.822 21.1604C23.6603 20.3204 23.6603 18.9602 22.8219 18.1201ZM21.89 20.2629C21.8891 20.2637 21.8883 20.2646 21.8874 20.2655L21.8939 20.2458L20.887 21.2526C19.5934 22.5627 17.7093 23.1016 15.9185 22.6741C14.1143 22.1912 12.3991 21.4224 10.8381 20.3971C9.38775 19.4702 8.0437 18.3867 6.83031 17.1659C5.71384 16.0576 4.71083 14.8407 3.83598 13.5333C2.87908 12.1264 2.12169 10.5939 1.58532 8.97927C0.970449 7.08244 1.47998 5.00106 2.90152 3.60272L4.07289 2.43135C4.39857 2.10421 4.92776 2.10306 5.25483 2.42873C5.25568 2.42958 5.2566 2.43043 5.25745 2.43135L8.95588 6.12978C9.28302 6.45545 9.28417 6.98465 8.9585 7.31171C8.95765 7.31256 8.9568 7.31341 8.95588 7.31434L6.78419 9.48602C6.16106 10.1024 6.08271 11.0818 6.59995 11.7894C7.38541 12.8673 8.25463 13.8817 9.19942 14.8232C10.2528 15.8811 11.3979 16.8435 12.6214 17.699C13.3284 18.1921 14.2868 18.109 14.8984 17.5016L16.9977 15.3694C17.3234 15.0423 17.8525 15.0411 18.1796 15.3668C18.1805 15.3676 18.1813 15.3685 18.1822 15.3694L21.8873 19.081C22.2145 19.4066 22.2157 19.9357 21.89 20.2629Z" fill="#C09E5F"/>
</svg>
