<svg width="14" height="11" viewBox="0 0 14 11" fill="none" xmlns="http://www.w3.org/2000/svg">
<path d="M12.7695 0.757812H1.23047C0.550621 0.757812 0 1.31185 0 1.98828V9.37109C0 10.0515 0.554668 10.6016 1.23047 10.6016H12.7695C13.4437 10.6016 14 10.0539 14 9.37109V1.98828C14 1.31305 13.4516 0.757812 12.7695 0.757812ZM12.5972 1.57812C12.3458 1.82818 8.01946 6.13176 7.87008 6.28035C7.63766 6.51277 7.32867 6.64074 7 6.64074C6.67133 6.64074 6.36234 6.51274 6.12916 6.27958C6.0287 6.17964 1.75008 1.92359 1.40279 1.57812H12.5972ZM0.820312 9.20413V2.15576L4.3651 5.68187L0.820312 9.20413ZM1.40331 9.78125L4.9467 6.26039L5.54988 6.86039C5.93723 7.24774 6.45222 7.46105 7 7.46105C7.54778 7.46105 8.06277 7.24774 8.44936 6.86116L9.0533 6.26039L12.5967 9.78125H1.40331ZM13.1797 9.20413L9.6349 5.68187L13.1797 2.15576V9.20413Z" fill="#C09E5F"/>
</svg>
