<svg width="26" height="15" viewBox="0 0 26 15" fill="none" xmlns="http://www.w3.org/2000/svg">
<path d="M14.471 3.55939C14.4704 3.64668 14.4698 3.73422 14.4693 3.8221H14.4533V4.3221C14.4533 4.55539 14.4517 4.79221 14.4501 5.03096C14.4469 5.51597 14.4436 6.00891 14.4534 6.49624L14.4533 6.49624L14.4536 6.50289L14.4537 6.5076C14.4605 6.71237 14.4709 7.02177 14.5704 7.30256C14.6826 7.61914 14.9161 7.92106 15.3447 8.04761C15.7592 8.17144 16.0974 8.03053 16.3346 7.84473C16.502 7.71364 16.6531 7.52943 16.7515 7.40953C16.7711 7.38556 16.7887 7.36416 16.8039 7.34626C18.0491 5.92018 18.9253 4.26505 19.6014 2.56031C19.7208 2.26551 19.8364 2.11912 19.947 2.04026C20.0501 1.96676 20.2075 1.9102 20.5027 1.92178L20.5043 1.92184C21.2056 1.94719 21.9411 1.93797 22.6607 1.92895C23.1616 1.92267 23.6547 1.91648 24.1232 1.92213V1.92216H24.1292C24.3316 1.92216 24.463 1.94341 24.5427 1.9695C24.5814 1.98216 24.6007 1.99342 24.609 1.99935C24.6114 2.00929 24.6148 2.03152 24.6122 2.07232C24.6069 2.1561 24.578 2.28618 24.5028 2.47467C24.0507 3.56814 23.3512 4.49496 22.6021 5.48769C22.4928 5.63254 22.3824 5.77879 22.2716 5.92716C22.1485 6.09124 22.0207 6.25808 21.891 6.42727C21.6244 6.7753 21.3501 7.13322 21.0943 7.49725L21.0942 7.49718L21.0885 7.50572C20.8056 7.92647 20.5745 8.35198 20.6138 8.82021C20.6534 9.29192 20.9549 9.66733 21.3049 10.0246L21.3051 10.0248C21.6316 10.3577 21.9542 10.6784 22.275 10.9973C22.6975 11.4175 23.117 11.8345 23.5381 12.2721L23.5387 12.2727C23.9125 12.6599 24.2299 13.0836 24.4801 13.5432C24.6275 13.8345 24.6033 13.9816 24.5872 14.0204L24.5871 14.0208C24.5842 14.0283 24.551 14.1147 24.2849 14.14C22.8816 14.2688 21.508 14.3372 20.1453 14.1842L20.1428 14.1839C19.5503 14.1205 19.1274 13.6919 18.5627 13.0967C18.4123 12.9372 18.2554 12.7621 18.0934 12.5813C17.7825 12.2344 17.4528 11.8665 17.1142 11.5472L17.1134 11.5465C16.7141 11.1716 16.2134 10.905 15.6848 11.0501C15.1665 11.1924 14.8589 11.6679 14.6824 12.1813L14.6824 12.1813L14.6809 12.1857C14.5161 12.6803 14.4533 13.1973 14.4533 13.6856C14.4533 13.9266 14.3932 14.0196 14.3525 14.0608C14.3052 14.1086 14.1969 14.1741 13.9433 14.1974C10.8095 14.4568 8.29866 13.3462 6.30754 10.9294L6.30712 10.9289C4.15804 8.32737 2.63646 5.33358 1.21128 2.23857C1.15389 2.11208 1.13457 2.02875 1.13049 1.98177C1.13045 1.98122 1.1304 1.98067 1.13036 1.98014C1.17308 1.96277 1.25596 1.94201 1.39659 1.93621C2.53853 1.89341 3.68307 1.89332 4.83332 1.9077L4.83332 1.90774H4.83957C4.99096 1.90774 5.08629 1.95282 5.16508 2.0224C5.25574 2.10244 5.34512 2.23483 5.4309 2.43606C6.02153 3.89695 6.77353 5.28247 7.65673 6.57814C7.6717 6.60062 7.68728 6.62423 7.70347 6.64878C7.82735 6.83664 7.98728 7.07915 8.18925 7.28238C8.2321 7.32753 8.2713 7.37382 8.32018 7.43153C8.3426 7.458 8.36706 7.48688 8.39484 7.51915C8.47479 7.61203 8.5772 7.72641 8.69864 7.82634C8.82216 7.92799 8.98228 8.02914 9.18288 8.07843C9.38947 8.1292 9.60521 8.11661 9.82239 8.04064C10.2635 7.88869 10.4801 7.55785 10.5819 7.23888C10.6574 7.00249 10.6801 6.73188 10.6959 6.54418C10.6987 6.51039 10.7013 6.47929 10.7039 6.45155C10.8239 5.38384 10.7928 4.31103 10.705 3.25744C10.6716 2.83363 10.5603 2.41054 10.3052 2.05788C10.1325 1.81921 9.90722 1.63121 9.6325 1.49902C9.71243 1.46588 9.80109 1.44119 9.89928 1.42483L9.90098 1.42454C11.1984 1.2037 12.5167 1.21625 13.8312 1.398C14.1082 1.43686 14.2444 1.52601 14.3182 1.61273C14.3948 1.70278 14.4621 1.85835 14.4678 2.13932C14.4773 2.6138 14.4742 3.08278 14.471 3.55939ZM24.6142 2.00377C24.6142 2.0038 24.6136 2.0033 24.6126 2.00217C24.6138 2.00318 24.6143 2.00374 24.6142 2.00377ZM24.6077 1.99495C24.607 1.99363 24.6068 1.99288 24.6068 1.99284C24.6069 1.99279 24.6072 1.99345 24.6077 1.99495ZM14.9492 3.8221C14.9561 3.82195 14.9583 3.8221 14.9533 3.8221H14.9492Z" fill="#C09E5F" stroke="#C09E5F"/>
</svg>
