<svg width="20" height="20" viewBox="0 0 20 20" fill="none" xmlns="http://www.w3.org/2000/svg">
<path d="M9.72018 19.5277C8.30628 19.5277 6.87795 19.5854 5.46405 19.5132C2.44869 19.3834 0.457685 17.4212 0.284555 14.3914C0.125852 11.5348 0.125852 8.67813 0.284555 5.80704C0.443258 2.77725 2.37654 0.829535 5.43519 0.641977C8.26299 0.483273 11.1052 0.483273 13.9474 0.641977C16.9051 0.80068 18.8095 2.44542 19.0981 5.38864C19.4155 8.56271 19.4299 11.7801 19.0692 14.9685C18.7518 17.7098 16.8185 19.3834 14.0629 19.5132C12.6057 19.5854 11.1629 19.5277 9.72018 19.5277Z" fill="#C09E5F"/>
<path d="M9.74889 2.35933C11.0618 2.35933 12.3891 2.31605 13.702 2.37376C16.1259 2.47475 17.3667 3.68667 17.4388 6.12492C17.5109 8.50547 17.4676 10.886 17.4676 13.2521C17.4676 13.685 17.4532 14.1178 17.3955 14.5506C17.1069 16.5849 16.0249 17.6814 13.9906 17.7968C11.1339 17.97 8.27728 17.97 5.42063 17.7968C3.29978 17.667 2.13114 16.4551 1.98686 14.3486C1.7993 11.5208 1.7993 8.6786 1.98686 5.8508C2.13114 3.67224 3.35749 2.47475 5.55048 2.37376C6.96438 2.31605 8.36385 2.35933 9.74889 2.35933Z" fill="#1F4250"/>
<path d="M14.6112 10.0778C14.6112 12.7757 12.447 14.9543 9.77795 14.9543C7.02228 14.9543 4.87258 12.819 4.85815 10.0778C4.85815 7.35095 7.02229 5.18682 9.76352 5.20124C12.4471 5.21567 14.5968 7.37981 14.6112 10.0778Z" fill="#C09E5F"/>
<path d="M15.9385 4.99967C15.9385 5.63449 15.4335 6.13945 14.7987 6.13945C14.1495 6.13945 13.6734 5.63449 13.6878 4.98525C13.7022 4.36486 14.1639 3.88875 14.7843 3.87433C15.4191 3.8599 15.9385 4.36486 15.9385 4.99967Z" fill="#C09E5F"/>
<path d="M9.69126 13.2379C7.94549 13.2235 6.53158 11.7951 6.54601 10.0783C6.56044 8.30367 8.01764 6.9042 9.79226 6.93306C11.5525 6.96191 12.9087 8.36138 12.8798 10.136C12.8654 11.8961 11.4659 13.2523 9.69126 13.2379Z" fill="#1F4250"/>
</svg>
