<svg width="20" height="20" viewBox="0 0 20 20" fill="none" xmlns="http://www.w3.org/2000/svg">
<path d="M9.72018 19.5277C8.30628 19.5277 6.87795 19.5854 5.46405 19.5132C2.44869 19.3834 0.457685 17.4212 0.284555 14.3914C0.125852 11.5348 0.125852 8.67813 0.284555 5.80704C0.443258 2.77725 2.37654 0.829535 5.43519 0.641977C8.26299 0.483273 11.1052 0.483273 13.9474 0.641977C16.9051 0.80068 18.8095 2.44542 19.0981 5.38864C19.4155 8.56271 19.4299 11.7801 19.0692 14.9685C18.7518 17.7098 16.8185 19.3834 14.0629 19.5132C12.6057 19.5854 11.1629 19.5277 9.72018 19.5277Z" fill="#C09E5F"/>
<path d="M9.74902 2.35933C11.0619 2.35933 12.3893 2.31605 13.7022 2.37376C16.126 2.47475 17.3668 3.68667 17.4389 6.12492C17.511 8.50547 17.4678 10.886 17.4678 13.2521C17.4678 13.685 17.4533 14.1178 17.3956 14.5506C17.1071 16.5849 16.025 17.6814 13.9907 17.7968C11.1341 17.97 8.2774 17.97 5.42075 17.7968C3.2999 17.667 2.13126 16.4551 1.98698 14.3486C1.79942 11.5208 1.79942 8.6786 1.98698 5.8508C2.13126 3.67224 3.35761 2.47475 5.5506 2.37376C6.9645 2.31605 8.36397 2.35933 9.74902 2.35933Z" fill="#231A18"/>
<path d="M14.6112 10.0778C14.6112 12.7757 12.447 14.9543 9.77795 14.9543C7.02228 14.9543 4.87258 12.819 4.85815 10.0778C4.85815 7.35095 7.02229 5.18682 9.76352 5.20124C12.4471 5.21567 14.5968 7.37981 14.6112 10.0778Z" fill="#C09E5F"/>
<path d="M15.9386 4.99967C15.9386 5.63449 15.4337 6.13945 14.7989 6.13945C14.1496 6.13945 13.6735 5.63449 13.6879 4.98525C13.7024 4.36486 14.164 3.88875 14.7844 3.87433C15.4192 3.8599 15.9386 4.36486 15.9386 4.99967Z" fill="#C09E5F"/>
<path d="M9.69138 13.2379C7.94562 13.2235 6.5317 11.7951 6.54613 10.0783C6.56056 8.30367 8.01777 6.9042 9.79238 6.93306C11.5526 6.96191 12.9088 8.36138 12.8799 10.136C12.8655 11.8961 11.466 13.2523 9.69138 13.2379Z" fill="#231A18"/>
</svg>
