<svg width="15" height="16" viewBox="0 0 15 16" fill="none" xmlns="http://www.w3.org/2000/svg">
<path d="M2.74476 13.2484L2.74939 13.2378C2.82818 13.0671 2.97187 12.9373 3.17669 12.8515L3.82619 12.5524L3.86062 12.5235C3.83587 12.495 3.8117 12.4658 3.78831 12.4356C3.49469 12.0541 3.33337 11.5473 3.3198 10.9688L3.22984 10.9277L2.89503 10.645L2.35704 11.1803H2.35667L2.29486 11.1803H2.29449L1.75653 10.645L1.42166 10.9277L0.724772 11.2485C0.621647 11.2909 0.520329 11.3551 0.46875 11.4667C0.46875 11.4667 -0.288749 13.2702 0.122148 13.2702H2.73566C2.74077 13.2581 2.74391 13.2506 2.74476 13.2484Z" fill="#C09E5F"/>
<path d="M1.06848 9.01126C1.08055 10.1251 1.70308 10.7889 2.32528 10.7889C2.85685 10.7889 3.56993 10.1251 3.5821 9.01126C3.58981 8.23856 3.22176 7.77588 2.32528 7.77588C1.42875 7.77584 1.06064 8.23856 1.06848 9.01126Z" fill="#C09E5F"/>
<path d="M6.64935 12.8516C6.86016 12.9398 7.00945 13.0768 7.08145 13.2492C7.08223 13.2509 7.0852 13.2583 7.09035 13.2702H7.90996C7.91507 13.2581 7.91824 13.2507 7.91916 13.2484L7.92397 13.2378C8.00262 13.0671 8.14634 12.9373 8.35099 12.8515L9.00066 12.5524L9.03513 12.5235C9.01027 12.495 8.9861 12.4658 8.96272 12.4356C8.66913 12.0541 8.50774 11.5473 8.49441 10.9688L8.40448 10.9277L8.06967 10.645L7.53148 11.1803H7.53128L7.4693 11.1803H7.46909L6.93097 10.645L6.59616 10.9277L6.5061 10.9689C6.49171 11.5312 6.3127 12.0527 5.99916 12.4418C5.98137 12.4638 5.96327 12.485 5.94482 12.5061L5.99998 12.5524L6.64935 12.8516Z" fill="#C09E5F"/>
<path d="M7.49977 10.7889C8.03131 10.7889 8.74456 10.1251 8.75656 9.01126C8.76437 8.23856 8.39622 7.77588 7.49977 7.77588C6.60328 7.77588 6.23527 8.23856 6.24304 9.01126C6.25501 10.1251 6.87761 10.7889 7.49977 10.7889Z" fill="#C09E5F"/>
<path d="M14.5309 11.4667C14.486 11.3597 14.378 11.2909 14.2749 11.2485L13.5779 10.9277L13.2431 10.645L12.7052 11.1803H12.7047L12.643 11.1803H12.6426L12.1046 10.645L11.7698 10.9277L11.6798 10.9689C11.6653 11.5312 11.4863 12.0527 11.1726 12.4418C11.1548 12.4638 11.1367 12.485 11.1183 12.506L11.1734 12.5524L11.823 12.8515C12.0339 12.9397 12.1831 13.0768 12.2551 13.2492C12.2558 13.2509 12.259 13.2582 12.264 13.2702H14.8776C15.2883 13.2702 14.5309 11.4667 14.5309 11.4667Z" fill="#C09E5F"/>
<path d="M11.4177 9.01126C11.4298 10.1251 12.0524 10.7889 12.6745 10.7889C13.2061 10.7889 13.9192 10.1251 13.9312 9.01126C13.9391 8.23856 13.571 7.77588 12.6745 7.77588C11.778 7.77584 11.4098 8.23856 11.4177 9.01126Z" fill="#C09E5F"/>
<path d="M6.51354 13.1609L5.81673 12.8399L5.48185 12.5579L4.9439 13.0927H4.94346H4.88165H4.88131L4.34332 12.5579L4.00851 12.8399L3.31153 13.1609C3.20844 13.2031 3.10708 13.2672 3.05557 13.3793C3.05557 13.3793 2.29804 15.1829 2.70894 15.1829H7.11627C7.52713 15.1829 6.76967 13.3793 6.76967 13.3793C6.7247 13.2718 6.61677 13.2031 6.51354 13.1609Z" fill="#C09E5F"/>
<path d="M4.91313 9.6886C4.01664 9.6886 3.6486 10.1509 3.65637 10.9237C3.66851 12.0372 4.29107 12.7015 4.91313 12.7015C5.44474 12.7015 6.15796 12.0372 6.16992 10.9237C6.17787 10.1509 5.80962 9.6886 4.91313 9.6886Z" fill="#C09E5F"/>
<path d="M11.6881 13.1609L10.9911 12.8399L10.6563 12.5579L10.1183 13.0927H10.118H10.0562H10.0558L9.51791 12.5579L9.183 12.8399L8.48622 13.1609C8.38309 13.2031 8.28181 13.2672 8.23006 13.3793C8.23006 13.3793 7.47263 15.1829 7.88349 15.1829H12.2908C12.7017 15.1829 11.9441 13.3793 11.9441 13.3793C11.8991 13.2718 11.7911 13.2031 11.6881 13.1609Z" fill="#C09E5F"/>
<path d="M10.0876 12.7015C10.6192 12.7015 11.3323 12.0372 11.3444 10.9237C11.3522 10.1508 10.9842 9.6886 10.0876 9.6886C9.19114 9.6886 8.82289 10.1509 8.83094 10.9237C8.84284 12.0371 9.46534 12.7015 10.0876 12.7015Z" fill="#C09E5F"/>
<path d="M7.06414 4.79711C7.08224 4.80608 7.10178 4.81044 7.12124 4.81044C7.14899 4.81044 7.17664 4.80151 7.19951 4.78402L8.52728 3.76914C8.55923 3.74476 8.57791 3.70689 8.57791 3.66673C8.57791 3.62653 8.55916 3.58869 8.52728 3.56425L7.19951 2.54943C7.16058 2.51967 7.10808 2.51456 7.06411 2.53631C7.02013 2.55802 6.99231 2.60282 6.99231 2.65188V4.68151C6.99234 4.73057 7.02013 4.77533 7.06414 4.79711Z" fill="#C09E5F"/>
<path d="M0.698248 7.3339H14.3013C14.4005 7.3339 14.481 7.25344 14.481 7.15421V0.179693C14.481 0.0804544 14.4005 0 14.3013 0H0.698248C0.599009 0 0.518555 0.0804544 0.518555 0.179693V7.15421C0.518555 7.25344 0.599043 7.3339 0.698248 7.3339ZM7.49982 1.57684C8.65413 1.57684 9.58993 2.5126 9.58993 3.66695C9.58993 4.8213 8.6542 5.75703 7.49982 5.75703C6.3455 5.75703 5.40971 4.8213 5.40971 3.66695C5.40971 2.5126 6.3455 1.57684 7.49982 1.57684Z" fill="#C09E5F"/>
</svg>
