<svg width="31" height="28" viewBox="0 0 31 28" fill="none" xmlns="http://www.w3.org/2000/svg">
<path d="M18.0347 20.9028C16.5585 19.4266 14.1565 19.4266 12.6804 20.9028C11.2042 22.379 11.2042 24.7809 12.6804 26.2571C13.4185 26.9951 14.388 27.3642 15.3575 27.3642C16.3271 27.3642 17.2966 26.9953 18.0347 26.2571C19.5109 24.7809 19.5109 22.379 18.0347 20.9028Z" fill="white"/>
<path d="M24.0731 13.3763C21.7489 11.052 18.6541 9.77197 15.3588 9.77197C12.0637 9.77197 8.9685 11.0522 6.64441 13.3763C6.04736 13.9733 5.71851 14.7671 5.71851 15.6114C5.71851 16.4558 6.0473 17.2496 6.64435 17.8466C7.2414 18.4437 8.03522 18.7725 8.87954 18.7725C9.7238 18.7725 10.5177 18.4437 11.1148 17.8466C13.4548 15.5065 17.2625 15.5065 19.6026 17.8466C20.1996 18.4437 20.9934 18.7725 21.8378 18.7725C22.6821 18.7725 23.4759 18.4437 24.0729 17.8467C24.67 17.2496 24.9988 16.4558 24.9988 15.6115C24.9988 14.7672 24.6701 13.9734 24.0731 13.3763Z" fill="white"/>
<path d="M29.7874 5.97749C25.9328 2.12283 20.8078 0 15.3565 0C9.90522 0 4.7802 2.12283 0.92566 5.97744C0.328546 6.57449 -0.000244141 7.3683 -0.000244141 8.21262C-0.000244141 9.05694 0.328546 9.85082 0.9256 10.4478C1.54191 11.0641 2.35126 11.3723 3.16079 11.3722C3.97014 11.3722 4.77978 11.064 5.39597 10.4479C10.8882 4.95573 19.8247 4.95573 25.317 10.4479C25.914 11.0449 26.7078 11.3737 27.5521 11.3737C28.3965 11.3737 29.1903 11.0449 29.7873 10.4478C30.3843 9.85076 30.7132 9.05694 30.7132 8.21262C30.7133 7.3683 30.3845 6.57449 29.7874 5.97749Z" fill="white"/>
</svg>
