<svg width="26" height="25" viewBox="0 0 26 25" fill="none" xmlns="http://www.w3.org/2000/svg">
<path d="M24.1109 17.3611C22.3748 17.3611 20.7081 17.0833 19.1525 16.5694C18.9083 16.4917 18.6476 16.4816 18.3981 16.5403C18.1486 16.599 17.9198 16.7243 17.7359 16.9028L14.6803 19.9583C10.7413 17.9544 7.53741 14.7554 5.52753 10.8194L8.58309 7.75C8.97198 7.375 9.08309 6.83333 8.93031 6.34722C8.40344 4.7473 8.13616 3.07333 8.13864 1.38889C8.13864 0.625 7.51364 0 6.74976 0H1.88864C1.12476 0 0.499756 0.625 0.499756 1.38889C0.499756 14.4306 11.0692 25 24.1109 25C24.8748 25 25.4998 24.375 25.4998 23.6111V18.75C25.4998 17.9861 24.8748 17.3611 24.1109 17.3611ZM12.9998 0V13.8889L17.1664 9.72222H25.4998V0H12.9998Z" fill="white"/>
</svg>
