<svg width="22" height="20" viewBox="0 0 22 20" fill="none" xmlns="http://www.w3.org/2000/svg">
<path d="M20.0364 2.46061H16.1697V0H14.7636V2.46061H6.32727V0H4.92121V2.46061H1.05455C0.774963 2.46093 0.506924 2.57214 0.309229 2.76983C0.111534 2.96753 0.000325611 3.23557 0 3.51515V18.2788C0.000325611 18.5584 0.111534 18.8264 0.309229 19.0241C0.506924 19.2218 0.774963 19.333 1.05455 19.3333H20.0364C20.3159 19.333 20.584 19.2218 20.7817 19.0241C20.9794 18.8264 21.0906 18.5584 21.0909 18.2788V3.51515C21.0906 3.23557 20.9794 2.96753 20.7817 2.76983C20.584 2.57214 20.3159 2.46093 20.0364 2.46061ZM19.6848 17.9273H1.40606V3.86667H4.92121V5.62424H6.32727V3.86667H14.7636V5.62424H16.1697V3.86667H19.6848V17.9273Z" fill="white"/>
<path d="M4.21851 8.08472H5.62457V9.49078H4.21851V8.08472Z" fill="white"/>
<path d="M8.08484 8.08472H9.4909V9.49078H8.08484V8.08472Z" fill="white"/>
<path d="M11.5999 8.08472H13.0059V9.49078H11.5999V8.08472Z" fill="white"/>
<path d="M15.4662 8.08472H16.8722V9.49078H15.4662V8.08472Z" fill="white"/>
<path d="M4.21851 11.2485H5.62457V12.6546H4.21851V11.2485Z" fill="white"/>
<path d="M8.08484 11.2485H9.4909V12.6546H8.08484V11.2485Z" fill="white"/>
<path d="M11.5999 11.2485H13.0059V12.6546H11.5999V11.2485Z" fill="white"/>
<path d="M15.4662 11.2485H16.8722V12.6546H15.4662V11.2485Z" fill="white"/>
<path d="M4.21851 14.4121H5.62457V15.8182H4.21851V14.4121Z" fill="white"/>
<path d="M8.08484 14.4121H9.4909V15.8182H8.08484V14.4121Z" fill="white"/>
<path d="M11.5999 14.4121H13.0059V15.8182H11.5999V14.4121Z" fill="white"/>
<path d="M15.4662 14.4121H16.8722V15.8182H15.4662V14.4121Z" fill="white"/>
</svg>
