<svg width="15" height="20" viewBox="0 0 15 20" fill="none" xmlns="http://www.w3.org/2000/svg">
<path d="M7.03125 0C3.15422 0 0 3.15422 0 7.03125C0 8.34117 0.362852 9.61953 1.04957 10.7286L6.63102 19.723C6.73793 19.8953 6.92629 20 7.12887 20C7.13043 20 7.13195 20 7.13352 20C7.33785 19.9984 7.5266 19.8905 7.63156 19.7152L13.0707 10.6336C13.7196 9.54797 14.0625 8.30231 14.0625 7.03125C14.0625 3.15422 10.9083 0 7.03125 0ZM12.0651 10.032L7.12 18.2885L2.04559 10.1112C1.47398 9.18805 1.16406 8.12305 1.16406 7.03125C1.16406 3.80039 3.80039 1.16406 7.03125 1.16406C10.2621 1.16406 12.8945 3.80039 12.8945 7.03125C12.8945 8.09066 12.605 9.12844 12.0651 10.032Z" fill="#C09E5F"/>
<path d="M7.03125 3.51562C5.09273 3.51562 3.51562 5.09273 3.51562 7.03125C3.51562 8.95738 5.06707 10.5469 7.03125 10.5469C9.01965 10.5469 10.5469 8.93621 10.5469 7.03125C10.5469 5.09273 8.96977 3.51562 7.03125 3.51562ZM7.03125 9.38281C5.73215 9.38281 4.67969 8.32684 4.67969 7.03125C4.67969 5.73891 5.73891 4.67969 7.03125 4.67969C8.32359 4.67969 9.37891 5.73891 9.37891 7.03125C9.37891 8.30793 8.35094 9.38281 7.03125 9.38281Z" fill="#C09E5F"/>
</svg>
