<svg width="25" height="25" viewBox="0 0 25 25" fill="none" xmlns="http://www.w3.org/2000/svg">
<path d="M23.589 18.1201L19.8906 14.4348C19.0512 13.5934 17.6886 13.5918 16.8473 14.4312C16.846 14.4324 16.8449 14.4336 16.8436 14.4348L14.7246 16.5538C14.5643 16.7145 14.3117 16.7367 14.1258 16.6065C12.966 15.7959 11.8803 14.8842 10.8815 13.882C9.98687 12.9894 9.16393 12.0279 8.42018 11.0061C8.28538 10.8226 8.30497 10.5681 8.46622 10.4073L10.6379 8.23561C11.4764 7.39554 11.4764 6.03531 10.6379 5.19524L6.93949 1.49682C6.08724 0.68205 4.74482 0.68205 3.89257 1.49682L2.7212 2.66819C0.952153 4.41734 0.320621 7.01457 1.08912 9.38068C1.66258 11.1118 2.47318 12.755 3.49772 14.2637C4.42007 15.6467 5.47823 16.9342 6.65654 18.1069C7.93757 19.3971 9.35657 20.5424 10.888 21.5224C12.5715 22.621 14.42 23.443 16.3633 23.9573C16.8629 24.0804 17.3755 24.1423 17.89 24.1415C19.6538 24.1307 21.3413 23.4208 22.5822 22.1673L23.5891 21.1604C24.4274 20.3204 24.4274 18.9602 23.589 18.1201ZM22.6571 20.2629C22.6562 20.2637 22.6554 20.2646 22.6545 20.2655L22.661 20.2458L21.6541 21.2526C20.3605 22.5627 18.4763 23.1016 16.6856 22.6741C14.8813 22.1912 13.1662 21.4224 11.6051 20.3971C10.1548 19.4702 8.81079 18.3867 7.59739 17.1659C6.48093 16.0576 5.47792 14.8407 4.60307 13.5333C3.64617 12.1264 2.88878 10.5939 2.35241 8.97927C1.73754 7.08244 2.24707 5.00106 3.66861 3.60272L4.83998 2.43135C5.16566 2.10421 5.69485 2.10306 6.02192 2.42873C6.02277 2.42958 6.02369 2.43043 6.02454 2.43135L9.72297 6.12978C10.0501 6.45545 10.0513 6.98465 9.72559 7.31171C9.72474 7.31256 9.72389 7.31341 9.72297 7.31434L7.55128 9.48602C6.92815 10.1024 6.8498 11.0818 7.36704 11.7894C8.1525 12.8673 9.02172 13.8817 9.96651 14.8232C11.0199 15.8811 12.165 16.8435 13.3885 17.699C14.0955 18.1921 15.0539 18.109 15.6655 17.5016L17.7648 15.3694C18.0904 15.0423 18.6196 15.0411 18.9467 15.3668C18.9475 15.3676 18.9484 15.3685 18.9493 15.3694L22.6544 19.081C22.9816 19.4066 22.9828 19.9357 22.6571 20.2629Z" fill="#C09E5F"/>
</svg>
