<svg width="16" height="14" viewBox="0 0 16 14" fill="none" xmlns="http://www.w3.org/2000/svg">
<path d="M14.4043 2.58734H10.9583V1.19878C10.9583 0.537617 10.4204 -0.000244141 9.75926 -0.000244141H6.24099C5.57983 -0.000244141 5.04194 0.537617 5.04194 1.19878V2.58734H1.59597C0.718137 2.58734 0.00394126 3.30154 0.00394126 4.17937C0.00394126 4.97675 -0.0777201 5.69285 0.526536 6.49817C0.868416 6.9538 1.33823 7.27883 1.88517 7.43805L7.1963 8.98442C7.7221 9.13749 8.27799 9.13755 8.80389 8.98442L14.115 7.43805C14.662 7.27879 15.1318 6.9538 15.4737 6.49817C16.0806 5.68924 15.9962 4.96577 15.9962 4.17937C15.9963 3.30154 15.2821 2.58734 14.4043 2.58734ZM6.05755 1.19878C6.05755 1.09763 6.13985 1.01537 6.24099 1.01537H9.75926C9.86041 1.01537 9.9427 1.09766 9.9427 1.19878V2.58734H6.05755V1.19878Z" fill="#C09E5F"/>
<path d="M14.3996 8.41364C8.67085 10.0816 8.74502 10.1153 8.0007 10.1153C7.26172 10.1153 7.43704 10.1126 1.60188 8.41367C0.986642 8.23451 0.441767 7.90431 0.00454712 7.4491V12.3226C0.00454712 13.2005 0.718712 13.9146 1.59658 13.9146H14.4049C15.2827 13.9146 15.9969 13.2005 15.9969 12.3226V7.4491C15.5596 7.90428 15.0148 8.23451 14.3996 8.41364Z" fill="#C09E5F"/>
</svg>
