<svg width="17" height="17" viewBox="0 0 17 17" fill="none" xmlns="http://www.w3.org/2000/svg">
<path d="M13.8082 8.49114C13.7334 8.40551 13.67 8.31208 13.6177 8.21343C13.592 10.8648 11.4275 13.014 8.77012 13.014C6.09685 13.014 3.92194 10.8391 3.92194 8.16581C3.92194 5.49254 6.09685 3.31763 8.77012 3.31763C11.0698 3.31763 13.0006 4.92722 13.4954 7.0789L13.9344 3.81511L13.9443 3.74172C12.6941 2.28169 10.8385 1.35474 8.77012 1.35474C7.15646 1.35474 5.67231 1.91917 4.50406 2.86052V2.93099V2.99339V4.37581V4.43068C4.50406 5.35407 4.02547 6.19709 3.26819 6.67881V12.0825V12.1756C4.50812 13.8723 6.51238 14.9768 8.77012 14.9768C11.1425 14.9768 13.2352 13.7572 14.4551 11.9124V11.8126V8.91821C14.2076 8.83768 13.9833 8.69141 13.8082 8.49114Z" fill="#C09E5F"/>
<path d="M8.77012 4.1416C6.55115 4.1416 4.74585 5.94685 4.74585 8.16587C4.74585 10.3849 6.5511 12.1901 8.77012 12.1901C10.9891 12.1901 12.7944 10.3849 12.7944 8.16587C12.7944 5.94685 10.9891 4.1416 8.77012 4.1416Z" fill="#C09E5F"/>
<path d="M16.4691 0.634908C16.4691 0.28425 16.1849 0 15.8342 0C15.5163 0 15.2474 0.235145 15.205 0.550264L14.2773 7.44636C14.2528 7.6279 14.308 7.81108 14.4286 7.94895C14.5491 8.08682 14.7233 8.16586 14.9065 8.16586H15.279V15.5628C15.279 15.8965 15.5495 16.167 15.8832 16.167C16.2169 16.167 16.4874 15.8965 16.4874 15.5628L16.4691 0.634908Z" fill="#C09E5F"/>
<path d="M3.68015 0.769012C3.68015 0.541447 3.49575 0.357056 3.26819 0.357056C3.04062 0.357056 2.85623 0.541447 2.85623 0.769012V3.04845H2.25203V0.769012C2.25203 0.541447 2.06764 0.357056 1.84007 0.357056C1.61251 0.357056 1.42812 0.541447 1.42812 0.769012V3.04845H0.823913V0.769012C0.823913 0.541447 0.639522 0.357056 0.411957 0.357056C0.184392 0.357056 0 0.541447 0 0.769012V4.48574C0 5.28873 0.517253 5.97279 1.23587 6.22343V15.5628C1.23587 15.8965 1.50639 16.167 1.84007 16.167C2.17376 16.167 2.44428 15.8965 2.44428 15.5628V6.22343C3.16289 5.97279 3.68015 5.28873 3.68015 4.48574V0.769012Z" fill="#C09E5F"/>
</svg>
