<svg width="14" height="14" viewBox="0 0 14 14" fill="none" xmlns="http://www.w3.org/2000/svg">
<path d="M6.56834 4.05591C6.3296 4.05591 5.83532 4.066 5.68115 4.08028V6.61659C5.81506 6.6296 6.26578 6.63598 6.44366 6.63598C7.55629 6.63598 8.12041 6.17678 8.12041 5.27115C8.12041 4.46475 7.59825 4.05591 6.56834 4.05591Z" fill="#C09E5F"/>
<path d="M12.402 0H1.59798C0.715359 0 0 0.715482 0 1.59802V12.3978C0 13.2804 0.715359 13.9959 1.59798 13.9959H12.402C13.2847 13.9959 14 13.2804 14 12.3978V1.59802C14 0.715482 13.2846 0 12.402 0ZM9.29719 7.31698C8.65562 7.99692 7.63325 8.37126 6.41739 8.37126C6.27711 8.37126 5.83104 8.36912 5.67984 8.35961V10.8803C5.67984 11.3135 5.32861 11.6649 4.89522 11.6649H4.71709C4.28375 11.6649 3.93239 11.3136 3.93239 10.8803V3.20501C3.93239 2.80766 4.22948 2.47302 4.62404 2.42595C5.15163 2.36295 5.99324 2.331 6.54212 2.331C7.69774 2.331 8.58801 2.60314 9.18804 3.13983C9.75524 3.63354 10.0676 4.37199 10.0676 5.22015C10.0676 6.08271 9.80836 6.78815 9.29719 7.31698Z" fill="#C09E5F"/>
</svg>
