<svg width="19" height="13" viewBox="0 0 19 13" fill="none" xmlns="http://www.w3.org/2000/svg">
<path d="M8.262 9.39482C7.54861 10.0864 7.54847 11.206 8.262 11.8978C9.40247 13.0035 11.3783 12.2281 11.3783 10.6463C11.3783 9.08522 9.41689 8.27498 8.262 9.39482V9.39482ZM9.55282 11.3194C9.16915 11.3194 8.85856 11.0183 8.85856 10.6463C8.85856 10.0443 9.61055 9.75037 10.0437 10.1703C10.4767 10.5902 10.174 11.3194 9.55282 11.3194ZM18.1035 4.85356C17.8578 5.04049 17.5022 4.99899 17.3094 4.76071C13.3564 -0.122872 5.75174 -0.125306 1.79624 4.76071C1.60344 4.99888 1.24802 5.04063 1.00208 4.85356C0.75635 4.66656 0.713469 4.32183 0.906346 4.08359C5.31497 -1.36247 13.7929 -1.35993 18.1993 4.08359C18.3921 4.32183 18.3493 4.6666 18.1035 4.85356ZM15.8552 5.67395C16.0527 5.90866 16.0165 6.25407 15.7744 6.44553C15.5324 6.63698 15.1761 6.60192 14.9786 6.36721C12.1595 3.01647 6.87701 3.04286 4.09072 6.41074C3.89544 6.64682 3.53952 6.68507 3.2956 6.49543C3.05189 6.30593 3.01279 5.96075 3.20825 5.72454C6.45491 1.80004 12.5805 1.78215 15.8552 5.67395V5.67395ZM13.1599 7.14914C13.3808 7.36329 13.3808 7.71052 13.1599 7.92466C12.9391 8.13877 12.5809 8.13887 12.36 7.92466C10.8086 6.42047 8.29735 6.42027 6.74571 7.92466C6.5248 8.13881 6.16669 8.13881 5.94582 7.92466C5.72491 7.71052 5.72491 7.36329 5.94582 7.14914C7.93924 5.21635 11.1661 5.21608 13.1599 7.14914Z" fill="#C09E5F"/>
</svg>
