<svg width="13" height="12" viewBox="0 0 13 12" fill="none" xmlns="http://www.w3.org/2000/svg">
<path d="M11.5095 0H2.03321C1.23343 0 0.582764 0.630844 0.582764 1.40625V10.5938C0.582764 11.3692 1.23343 12 2.03321 12H11.5095C12.3092 12 12.9599 11.3692 12.9599 10.5938V1.40625C12.9599 0.630844 12.3092 0 11.5095 0ZM11.9929 10.5938C11.9929 10.8522 11.7761 11.0625 11.5095 11.0625H2.03321C1.76662 11.0625 1.54973 10.8522 1.54973 10.5938V1.40625C1.54973 1.14778 1.76662 0.9375 2.03321 0.9375H11.5095C11.7761 0.9375 11.9929 1.14778 11.9929 1.40625V10.5938Z" fill="#C09E5F"/>
<path d="M7.49644 2.34375H4.11206V9.65625H5.07902V7.03125H7.49644C8.8294 7.03125 9.91385 5.97984 9.91385 4.6875C9.91385 3.39516 8.8294 2.34375 7.49644 2.34375ZM7.49644 6.09375H5.07902V3.28125H7.49644C8.29621 3.28125 8.94688 3.91209 8.94688 4.6875C8.94688 5.46291 8.29621 6.09375 7.49644 6.09375Z" fill="#C09E5F"/>
</svg>
