<svg width="13" height="13" viewBox="0 0 13 13" fill="none" xmlns="http://www.w3.org/2000/svg">
<path d="M12.3149 3.8208C12.2064 3.8208 12.1185 3.90604 12.1185 4.01123V11.1408C12.1185 11.2557 12.022 11.3492 11.9035 11.3492H1.15076C1.03223 11.3492 0.935802 11.2557 0.935802 11.1408V10.0797C0.935802 9.97446 0.84786 9.88922 0.739385 9.88922C0.630911 9.88922 0.542969 9.97446 0.542969 10.0797V11.1408C0.542969 11.4657 0.815621 11.7301 1.15076 11.7301H1.71736V12.5553C1.71736 12.8003 1.92297 12.9996 2.17566 12.9996H4.63742C4.89011 12.9996 5.09572 12.8003 5.09572 12.5553V11.7301H7.87174V12.5553C7.87174 12.8003 8.07735 12.9996 8.33005 12.9996H10.7918C11.0445 12.9996 11.2501 12.8003 11.2501 12.5553V11.7301H11.9035C12.2387 11.7301 12.5113 11.4657 12.5113 11.1408V4.01123C12.5113 3.90604 12.4233 3.8208 12.3149 3.8208ZM4.70289 12.5553C4.70289 12.5903 4.6735 12.6187 4.63742 12.6187H2.17566C2.13957 12.6187 2.11019 12.5903 2.11019 12.5553V11.7301H4.70289V12.5553ZM10.8573 12.5553C10.8573 12.5903 10.8279 12.6187 10.7918 12.6187H8.33005C8.29396 12.6187 8.26457 12.5903 8.26457 12.5553V11.7301H10.8573V12.5553Z" fill="#C09E5F"/>
<path d="M11.9045 0H1.15174C0.816598 0 0.543945 0.264319 0.543945 0.589246V9.14071C0.543945 9.24591 0.631888 9.33115 0.740362 9.33115C0.848836 9.33115 0.936778 9.24591 0.936778 9.14071V0.589246C0.936778 0.474352 1.03321 0.380863 1.15174 0.380863H11.9045C12.023 0.380863 12.1195 0.474352 12.1195 0.589246V3.09769C12.1195 3.20288 12.2074 3.28812 12.3159 3.28812C12.4243 3.28812 12.5123 3.20288 12.5123 3.09769V0.589246C12.5123 0.264319 12.2396 0 11.9045 0V0Z" fill="#C09E5F"/>
<path d="M1.41821 7.21452V8.43843C1.41821 8.75211 1.65415 9.01321 1.96297 9.06406V9.69467C1.96297 10.0259 2.24096 10.2955 2.58265 10.2955H10.3854C10.727 10.2955 11.005 10.0259 11.005 9.69467V2.03488C11.005 1.70361 10.727 1.43408 10.3854 1.43408H7.85366C7.74518 1.43408 7.65724 1.51932 7.65724 1.62451C7.65724 1.72971 7.74518 1.81495 7.85366 1.81495H10.3854C10.5104 1.81495 10.6122 1.91361 10.6122 2.03488V9.6947C10.6122 9.81596 10.5104 9.91463 10.3854 9.91463H2.58265C2.45757 9.91463 2.3558 9.81596 2.3558 9.6947V9.06409C2.66462 9.01321 2.90056 8.75211 2.90056 8.43846V7.21454C2.90056 6.90086 2.66462 6.63977 2.3558 6.58891V5.14072C2.66462 5.08983 2.90056 4.82874 2.90056 4.51509V3.29117C2.90056 2.97749 2.66462 2.7164 2.3558 2.66554V2.03488C2.3558 1.91361 2.45757 1.81495 2.58265 1.81495H6.73304C6.84151 1.81495 6.92945 1.72971 6.92945 1.62451C6.92945 1.51932 6.84151 1.43408 6.73304 1.43408H2.58265C2.24096 1.43408 1.96297 1.70361 1.96297 2.03488V2.66549C1.65415 2.71637 1.41821 2.97747 1.41821 3.29112V4.51504C1.41821 4.82871 1.65415 5.08981 1.96297 5.14067V6.58886C1.65415 6.63977 1.41821 6.90084 1.41821 7.21452V7.21452ZM2.50772 7.21452V8.43843C2.50772 8.57844 2.39024 8.69234 2.24583 8.69234H2.07293C1.92853 8.69234 1.81105 8.57844 1.81105 8.43843V7.21452C1.81105 7.07451 1.92853 6.96061 2.07293 6.96061H2.24583C2.39024 6.96061 2.50772 7.07454 2.50772 7.21452ZM1.81105 4.51506V3.29115C1.81105 3.15114 1.92853 3.03724 2.07293 3.03724H2.24583C2.39024 3.03724 2.50772 3.15114 2.50772 3.29115V4.51506C2.50772 4.65507 2.39024 4.76897 2.24583 4.76897H2.07293C1.92853 4.76897 1.81105 4.65504 1.81105 4.51506Z" fill="#C09E5F"/>
<path d="M8.6711 7.93618C8.75342 8.00466 8.87742 7.99554 8.94808 7.91574C9.45274 7.34586 9.73068 6.61783 9.73068 5.86575C9.73068 4.12968 8.2739 2.71729 6.48326 2.71729C4.69262 2.71729 3.23584 4.12968 3.23584 5.86575C3.23584 7.60183 4.69262 9.01422 6.48326 9.01422C7.09579 9.01422 7.69243 8.84799 8.20866 8.5335C8.30051 8.47753 8.32819 8.35998 8.27047 8.27093C8.21275 8.18191 8.09152 8.1551 7.99965 8.21101C7.54611 8.48731 7.02176 8.63336 6.48326 8.63336C4.90923 8.63336 3.62867 7.39182 3.62867 5.86575C3.62867 4.33969 4.90923 3.09815 6.48326 3.09815C8.05729 3.09815 9.33785 4.33969 9.33785 5.86575C9.33785 6.52686 9.09358 7.16678 8.65002 7.66764C8.57936 7.74742 8.58879 7.86767 8.6711 7.93618V7.93618Z" fill="#C09E5F"/>
<path d="M8.5192 6.05569C8.62768 6.05569 8.71562 5.97046 8.71562 5.86526C8.71562 5.76007 8.62768 5.67483 8.5192 5.67483H7.76447C7.73225 5.47033 7.64887 5.28203 7.52761 5.1223L8.06187 4.60435C8.13857 4.52998 8.13857 4.4094 8.06187 4.33505C7.98519 4.26066 7.86082 4.26069 7.78411 4.33503L7.24986 4.85298C7.0851 4.73544 6.89088 4.65457 6.67996 4.62337V3.8916C6.67996 3.78641 6.59202 3.70117 6.48354 3.70117C6.37507 3.70117 6.28713 3.78641 6.28713 3.8916V4.62337C6.0762 4.6546 5.88198 4.73544 5.71723 4.853L5.18298 4.33503C5.10627 4.26069 4.9819 4.26066 4.90522 4.33505C4.82851 4.40942 4.82851 4.53001 4.90522 4.60435L5.43947 5.1223C5.31822 5.28203 5.23483 5.47036 5.20262 5.67483H4.44788C4.33941 5.67483 4.25146 5.76007 4.25146 5.86526C4.25146 5.97046 4.33941 6.05569 4.44788 6.05569H5.20262C5.23483 6.26019 5.31822 6.44849 5.43947 6.60822L4.90522 7.12617C4.82851 7.20054 4.82851 7.32112 4.90522 7.39547C4.98192 7.46986 5.10627 7.46984 5.18298 7.39549L5.71723 6.87752C5.88198 6.99505 6.0762 7.07592 6.28713 7.10715V7.83892C6.28713 7.94411 6.37507 8.02935 6.48354 8.02935C6.59202 8.02935 6.67996 7.94411 6.67996 7.83892V7.10715C6.89088 7.07592 7.0851 6.99508 7.24986 6.87755L7.78411 7.39549C7.86082 7.46984 7.98519 7.46986 8.06187 7.39547C8.13857 7.3211 8.13857 7.20052 8.06187 7.12617L7.52761 6.60822C7.64887 6.44849 7.73225 6.26019 7.76447 6.05569H8.5192ZM6.48352 6.74071C5.98561 6.74071 5.58055 6.34797 5.58055 5.86526C5.58055 5.38256 5.98561 4.98981 6.48352 4.98981C6.98142 4.98981 7.38651 5.38256 7.38651 5.86526C7.38651 6.34797 6.98142 6.74071 6.48352 6.74071V6.74071Z" fill="#C09E5F"/>
</svg>
