<svg width="16" height="11" viewBox="0 0 16 11" fill="none" xmlns="http://www.w3.org/2000/svg">
<path d="M13.4055 0H2.60476C1.60167 0 0.785645 0.79119 0.785645 1.76368V5.73196C0.785645 6.70445 1.60167 7.49564 2.60476 7.49564H13.4055C14.4086 7.49564 15.2246 6.70448 15.2246 5.73196V1.76368C15.2246 0.79119 14.4086 0 13.4055 0ZM12.0128 6.66891H3.9975V6.5448C3.9975 6.03581 4.42457 5.62172 4.94959 5.62172H11.0606C11.5857 5.62172 12.0127 6.03584 12.0127 6.5448V6.66891H12.0128ZM14.3719 5.73196C14.3719 6.24861 13.9384 6.66891 13.4055 6.66891H12.8654V6.5448C12.8654 5.57997 12.0558 4.79498 11.0606 4.79498H4.94959C3.9544 4.79498 3.14478 5.57997 3.14478 6.5448V6.66891H2.60473C2.07184 6.66891 1.63833 6.24861 1.63833 5.73196V1.76368C1.63833 1.24703 2.07184 0.826734 2.60473 0.826734H13.4055C13.9384 0.826734 14.3719 1.24703 14.3719 1.76368V5.73196V5.73196Z" fill="#C09E5F"/>
<path d="M12.8939 1.5708H12.3502C12.1147 1.5708 11.9238 1.75588 11.9238 1.98415C11.9238 2.21243 12.1147 2.39751 12.3502 2.39751H12.8939C13.1294 2.39751 13.3203 2.21243 13.3203 1.98415C13.3203 1.75588 13.1294 1.5708 12.8939 1.5708Z" fill="#C09E5F"/>
<path d="M10.8473 1.5708H10.3035C10.0681 1.5708 9.8772 1.75588 9.8772 1.98415C9.8772 2.21243 10.0681 2.39751 10.3035 2.39751H10.8473C11.0827 2.39751 11.2736 2.21243 11.2736 1.98415C11.2736 1.75588 11.0827 1.5708 10.8473 1.5708Z" fill="#C09E5F"/>
<path d="M8.00496 7.91309C7.76951 7.91309 7.57861 8.09816 7.57861 8.32644V10.2698C7.57861 10.4981 7.76951 10.6832 8.00496 10.6832C8.24041 10.6832 8.4313 10.4981 8.4313 10.2698V8.32644C8.4313 8.09816 8.24041 7.91309 8.00496 7.91309Z" fill="#C09E5F"/>
<path d="M10.4782 9.85649C10.0824 9.85649 9.7604 9.5443 9.7604 9.16058V8.32644C9.7604 8.09816 9.56951 7.91309 9.33406 7.91309C9.09861 7.91309 8.90771 8.09816 8.90771 8.32644V9.16058C8.90771 10.0002 9.61223 10.6832 10.4782 10.6832C10.7137 10.6832 10.9046 10.4981 10.9046 10.2699C10.9045 10.0416 10.7136 9.85649 10.4782 9.85649Z" fill="#C09E5F"/>
<path d="M6.67691 7.91309C6.44146 7.91309 6.25056 8.09816 6.25056 8.32644V9.16058C6.25056 9.54432 5.92859 9.85649 5.53279 9.85649C5.29734 9.85649 5.10645 10.0416 5.10645 10.2698C5.10645 10.4981 5.29734 10.6832 5.53279 10.6832C6.39876 10.6832 7.10328 10.0001 7.10328 9.16056V8.32641C7.10328 8.09816 6.91239 7.91309 6.67691 7.91309Z" fill="#C09E5F"/>
</svg>
