<svg width="15" height="18" viewBox="0 0 15 18" fill="none" xmlns="http://www.w3.org/2000/svg">
<path d="M13.4231 0C12.9201 0 12.5124 0.395319 12.5124 0.882983V1.17731H5.83366C4.99578 1.17827 4.31675 1.83661 4.31577 2.64895V4.12059H3.70861C3.20562 4.12059 2.79788 4.51591 2.79788 5.00357V6.01753C1.47553 6.80777 0.671009 8.20678 0.67283 9.71282V10.0613C0.310244 10.1856 0.0672676 10.5173 0.0656738 10.8901V11.4788C0.0656738 11.6413 0.201601 11.7731 0.369252 11.7731H10.0838C10.2514 11.7731 10.3873 11.6413 10.3873 11.4788V10.8901C10.3857 10.5173 10.1428 10.1856 9.78017 10.0613V9.71282C9.78196 8.5408 9.30116 7.41658 8.44443 6.5897C8.20635 6.36712 7.94129 6.1733 7.65513 6.01253V5.00357C7.65513 4.51591 7.24738 4.12059 6.74439 4.12059H6.13724V3.23761C6.13724 3.07506 6.27316 2.94328 6.44081 2.94328H12.5124V3.53193C12.5124 4.0196 12.9201 4.41492 13.4231 4.41492H14.3338V0H13.4231ZM9.78017 10.8901V11.1845H0.67283V10.8901C0.67283 10.7276 0.808757 10.5958 0.976408 10.5958H9.47659C9.64425 10.5958 9.78017 10.7276 9.78017 10.8901ZM8.01669 7.00677C8.75856 7.72342 9.17476 8.69746 9.17302 9.71282V10.0071H1.27999V9.71282C1.279 8.3829 2.00326 7.15158 3.18433 6.47521H7.2708C7.54235 6.61998 7.79314 6.79868 8.01669 7.00677ZM6.74439 4.70924C6.91204 4.70924 7.04797 4.84103 7.04797 5.00357V5.88656H3.40503V5.00357C3.40503 4.84103 3.54096 4.70924 3.70861 4.70924H6.74439ZM12.5124 2.35462H6.44081C5.93782 2.35462 5.53008 2.74994 5.53008 3.23761V4.12059H4.92292V2.64895C4.92292 2.16129 5.33067 1.76597 5.83366 1.76597H12.5124V2.35462ZM13.7267 3.82626H13.4231C13.2555 3.82626 13.1195 3.69448 13.1195 3.53193V0.882983C13.1195 0.720441 13.2555 0.588656 13.4231 0.588656H13.7267V3.82626Z" fill="#C09E5F"/>
<path d="M5.22594 12.3618C5.05829 12.3618 4.92236 12.4936 4.92236 12.6561V13.8335C4.92236 13.996 5.05829 14.1278 5.22594 14.1278C5.39359 14.1278 5.52952 13.996 5.52952 13.8335V12.6561C5.52952 12.4936 5.39359 12.3618 5.22594 12.3618Z" fill="#C09E5F"/>
<path d="M5.22594 14.7168C5.05829 14.7168 4.92236 14.8486 4.92236 15.0111V16.1884C4.92236 16.351 5.05829 16.4828 5.22594 16.4828C5.39359 16.4828 5.52952 16.351 5.52952 16.1884V15.0111C5.52952 14.8486 5.39359 14.7168 5.22594 14.7168Z" fill="#C09E5F"/>
<path d="M8.86925 13.5391C8.7016 13.5391 8.56567 13.6708 8.56567 13.8334V15.0107C8.56567 15.1732 8.7016 15.305 8.86925 15.305C9.0369 15.305 9.17283 15.1732 9.17283 15.0107V13.8334C9.17283 13.6708 9.0369 13.5391 8.86925 13.5391Z" fill="#C09E5F"/>
<path d="M6.44079 13.5391C6.27313 13.5391 6.13721 13.6708 6.13721 13.8334V15.0107C6.13721 15.1732 6.27313 15.305 6.44079 15.305C6.60844 15.305 6.74436 15.1732 6.74436 15.0107V13.8334C6.74436 13.6708 6.60844 13.5391 6.44079 13.5391Z" fill="#C09E5F"/>
<path d="M4.01232 13.5391C3.84467 13.5391 3.70874 13.6708 3.70874 13.8334V15.0107C3.70874 15.1732 3.84467 15.305 4.01232 15.305C4.17997 15.305 4.3159 15.1732 4.3159 15.0107V13.8334C4.3159 13.6708 4.17997 13.5391 4.01232 13.5391Z" fill="#C09E5F"/>
<path d="M1.58385 13.5391C1.4162 13.5391 1.28027 13.6708 1.28027 13.8334V15.0107C1.28027 15.1732 1.4162 15.305 1.58385 15.305C1.7515 15.305 1.88743 15.1732 1.88743 15.0107V13.8334C1.88743 13.6708 1.7515 13.5391 1.58385 13.5391Z" fill="#C09E5F"/>
<path d="M2.79747 12.3618C2.62982 12.3618 2.4939 12.4936 2.4939 12.6561V13.8335C2.4939 13.996 2.62982 14.1278 2.79747 14.1278C2.96513 14.1278 3.10105 13.996 3.10105 13.8335V12.6561C3.10105 12.4936 2.96513 12.3618 2.79747 12.3618Z" fill="#C09E5F"/>
<path d="M7.65465 12.3618C7.487 12.3618 7.35107 12.4936 7.35107 12.6561V13.8335C7.35107 13.996 7.487 14.1278 7.65465 14.1278C7.8223 14.1278 7.95823 13.996 7.95823 13.8335V12.6561C7.95823 12.4936 7.8223 12.3618 7.65465 12.3618Z" fill="#C09E5F"/>
<path d="M7.65465 14.7168C7.487 14.7168 7.35107 14.8486 7.35107 15.0111V16.1884C7.35107 16.351 7.487 16.4828 7.65465 16.4828C7.8223 16.4828 7.95823 16.351 7.95823 16.1884V15.0111C7.95823 14.8486 7.8223 14.7168 7.65465 14.7168Z" fill="#C09E5F"/>
<path d="M2.79747 14.7168C2.62982 14.7168 2.4939 14.8486 2.4939 15.0111V16.1884C2.4939 16.351 2.62982 16.4828 2.79747 16.4828C2.96513 16.4828 3.10105 16.351 3.10105 16.1884V15.0111C3.10105 14.8486 2.96513 14.7168 2.79747 14.7168Z" fill="#C09E5F"/>
<path d="M4.01232 15.8936C3.84467 15.8936 3.70874 16.0253 3.70874 16.1879V17.3652C3.70874 17.5277 3.84467 17.6595 4.01232 17.6595C4.17997 17.6595 4.3159 17.5277 4.3159 17.3652V16.1879C4.3159 16.0253 4.17997 15.8936 4.01232 15.8936Z" fill="#C09E5F"/>
<path d="M6.44079 15.8936C6.27313 15.8936 6.13721 16.0253 6.13721 16.1879V17.3652C6.13721 17.5277 6.27313 17.6595 6.44079 17.6595C6.60844 17.6595 6.74436 17.5277 6.74436 17.3652V16.1879C6.74436 16.0253 6.60844 15.8936 6.44079 15.8936Z" fill="#C09E5F"/>
</svg>
