<svg width="14" height="14" viewBox="0 0 14 14" fill="none" xmlns="http://www.w3.org/2000/svg">
<path d="M13.9789 4.56784C14.0997 3.23938 13.6913 2.0329 12.8291 1.17064C11.9668 0.308381 10.7602 -0.0999861 9.43189 0.0207878C8.13143 0.139019 6.866 0.753361 5.86872 1.75067C4.87141 2.74798 4.25709 4.01341 4.13883 5.31384C4.10244 5.71425 4.11444 6.10348 4.17211 6.47564L3.2585 9.05767C3.20576 9.20669 3.24335 9.37271 3.35513 9.48449L4.51521 10.6445C4.59344 10.7228 4.6983 10.7647 4.80526 10.7647C4.85112 10.7647 4.89733 10.757 4.94201 10.7412L7.52384 9.8277C7.75399 9.86338 7.99061 9.88168 8.23246 9.88168C8.38175 9.88168 8.53301 9.87479 8.68586 9.8609C9.98632 9.74267 11.2518 9.12832 12.249 8.13102C13.2464 7.13374 13.8607 5.86827 13.9789 4.56784ZM13.101 4.9227L12.8291 4.65083L13.1746 4.30532C13.1653 4.50952 13.1409 4.71593 13.101 4.9227ZM13.0761 3.24373L12.2491 4.0708L11.379 3.20075L12.5193 2.06046C12.7867 2.41193 12.9716 2.81354 13.0761 3.24373ZM11.669 4.65083L10.509 5.81091L9.6389 4.94086L10.799 3.78078L11.669 4.65083ZM10.7561 0.923516C11.1863 1.02808 11.588 1.2128 11.9395 1.48025L10.799 2.62075L9.92893 1.7507L10.7561 0.923516ZM10.219 3.20075L9.05887 4.36083L8.18882 3.49078L9.3489 2.33069L10.219 3.20075ZM6.44874 5.23088L7.60882 4.0708L8.47888 4.94086L7.31879 6.10094L6.44874 5.23088ZM6.73877 6.68096L5.59848 7.82125C5.33104 7.46981 5.14618 7.06819 5.04162 6.63801L5.86869 5.81094L6.73877 6.68096ZM9.6943 0.825245L9.3489 1.17067L9.07719 0.898962C9.28388 0.859096 9.49018 0.834542 9.6943 0.825245ZM8.18456 1.16635L8.76888 1.75067L7.6088 2.91075L6.74957 2.05152C7.19477 1.66774 7.68243 1.37178 8.18456 1.16635ZM6.16962 2.63163L7.0288 3.49078L5.86872 4.65086L5.28423 4.06637C5.48963 3.5643 5.78589 3.07678 6.16962 2.63163ZM5.01682 4.95901L5.28869 5.23088L4.94318 5.57639C4.95248 5.37216 4.97692 5.16578 5.01682 4.95901ZM4.91231 9.88162L4.11811 9.08742L4.58874 7.75729C4.77139 8.10706 5.00533 8.42774 5.28866 8.71107C5.57193 8.99434 5.89239 9.22848 6.24206 9.4111L4.91231 9.88162ZM7.36178 8.95811C6.93156 8.85358 6.52995 8.66869 6.17851 8.40125L7.31879 7.26096L8.18885 8.13102L7.36178 8.95811ZM7.89882 6.68096L9.0589 5.52088L9.92896 6.39094L8.76888 7.55102L7.89882 6.68096ZM8.42337 9.05655L8.76888 8.71104L9.04075 8.98291C8.83398 9.02281 8.62759 9.04728 8.42337 9.05655ZM9.93338 8.7155L9.3489 8.13102L10.509 6.97093L11.3682 7.83008C10.923 8.21384 10.4355 8.5101 9.93338 8.7155ZM11.089 6.39094L12.2491 5.23085L12.8336 5.81534C12.6281 6.31741 12.3319 6.80494 11.9482 7.25008L11.089 6.39094Z" fill="#C09E5F"/>
<path d="M12.4961 13.9999C13.3266 13.9999 13.9999 13.3266 13.9999 12.4961C13.9999 11.6655 13.3266 10.9922 12.4961 10.9922C11.6655 10.9922 10.9922 11.6655 10.9922 12.4961C10.9922 13.3266 11.6655 13.9999 12.4961 13.9999Z" fill="#C09E5F"/>
<path d="M0.160182 12.6798C-0.053394 12.8933 -0.053394 13.2396 0.160182 13.4531L0.546866 13.8398C0.760442 14.0534 1.10669 14.0534 1.32024 13.8398L2.7754 12.3847L1.61535 11.2246L0.160182 12.6798Z" fill="#C09E5F"/>
<path d="M2.19385 10.644L2.77377 10.0641L3.93362 11.224L3.3537 11.804L2.19385 10.644Z" fill="#C09E5F"/>
</svg>
