<svg width="15" height="14" viewBox="0 0 15 14" fill="none" xmlns="http://www.w3.org/2000/svg">
<path d="M8.80803 10.2087C8.08707 9.48773 6.91399 9.48773 6.19305 10.2087C5.47211 10.9296 5.47211 12.1027 6.19305 12.8237C6.55352 13.1841 7.02701 13.3644 7.50054 13.3644C7.97404 13.3644 8.44753 13.1842 8.80803 12.8237C9.52897 12.1027 9.52897 10.9296 8.80803 10.2087Z" fill="#C09E5F"/>
<path d="M11.7571 6.53277C10.622 5.3976 9.11053 4.77246 7.50113 4.77246C5.89185 4.77246 4.38022 5.39769 3.24517 6.53274C2.95357 6.82433 2.79297 7.21202 2.79297 7.62437C2.79297 8.03673 2.95355 8.42444 3.24514 8.716C3.53673 9.0076 3.92442 9.1682 4.33677 9.1682C4.7491 9.1682 5.13684 9.00763 5.42843 8.716C6.57125 7.57313 8.43087 7.57313 9.57374 8.716C9.86531 9.0076 10.253 9.1682 10.6654 9.1682C11.0778 9.1682 11.4654 9.00763 11.757 8.71603C12.0486 8.42444 12.2092 8.03675 12.2092 7.6244C12.2092 7.21205 12.0487 6.82436 11.7571 6.53277Z" fill="#C09E5F"/>
<path d="M14.5478 2.91932C12.6653 1.03676 10.1623 0 7.50001 0C4.83769 0 2.3347 1.03676 0.452198 2.91929C0.160576 3.21089 0 3.59857 0 4.01093C0 4.42328 0.160576 4.811 0.452169 5.10256C0.753166 5.40356 1.14844 5.55405 1.5438 5.55402C1.93908 5.554 2.3345 5.4035 2.63543 5.10259C5.31774 2.42031 9.68223 2.42031 12.3646 5.10259C12.6561 5.39415 13.0438 5.55476 13.4562 5.55476C13.8686 5.55476 14.2562 5.39418 14.5478 5.10256C14.8394 4.81097 15 4.42328 15 4.01093C15 3.59857 14.8395 3.21089 14.5478 2.91932Z" fill="#C09E5F"/>
</svg>
